<?xml version="1.0" encoding="UTF-8" standalone="no"?>
<!-- Created with Inkscape (http://www.inkscape.org/) -->

<svg
   xmlns:dc="http://purl.org/dc/elements/1.1/"
   xmlns:cc="http://creativecommons.org/ns#"
   xmlns:rdf="http://www.w3.org/1999/02/22-rdf-syntax-ns#"
   xmlns:svg="http://www.w3.org/2000/svg"
   xmlns="http://www.w3.org/2000/svg"
   xmlns:sodipodi="http://sodipodi.sourceforge.net/DTD/sodipodi-0.dtd"
   xmlns:inkscape="http://www.inkscape.org/namespaces/inkscape"
   version="1.1"
   id="svg2"
   width="204"
   height="227"
   viewBox="0 0 204 227"
   sodipodi:docname="grand-crane.svg"
   inkscape:version="0.92.3 (2405546, 2018-03-11)">
  <metadata
     id="metadata8">
    <rdf:RDF>
      <cc:Work
         rdf:about="">
        <dc:format>image/svg+xml</dc:format>
        <dc:type
           rdf:resource="http://purl.org/dc/dcmitype/StillImage" />
        <dc:title />
      </cc:Work>
    </rdf:RDF>
  </metadata>
  <defs
     id="defs6" />
  <sodipodi:namedview
     pagecolor="#ffffff"
     bordercolor="#666666"
     borderopacity="1"
     objecttolerance="10"
     gridtolerance="10"
     guidetolerance="10"
     inkscape:pageopacity="0"
     inkscape:pageshadow="2"
     inkscape:window-width="1613"
     inkscape:window-height="995"
     id="namedview4"
     showgrid="false"
     inkscape:zoom="2.9405675"
     inkscape:cx="155.23907"
     inkscape:cy="101.61065"
     inkscape:window-x="67"
     inkscape:window-y="27"
     inkscape:window-maximized="1"
     inkscape:current-layer="g943" />
  <g
     id="g978"
     transform="translate(240.4661,-8.6567797)">
    <path
       inkscape:connector-curvature="0"
       id="path966"
       d="m -222.74613,113.07641 -0.34007,-36.047466 12.92268,-28.225845 22.10458,-15.98331 29.58612,-7.82162 33.3269,-1.360282 28.22585,6.121268 18.363802,15.98331 11.902465,22.784718 -1.360282,21.764507 -18.703873,29.24606 -53.050982,8.50176 -30.94641,23.46486 -37.74782,-8.50176 z"
       style="fill:#030303;fill-opacity:1;stroke:#000000;stroke-width:1px;stroke-linecap:butt;stroke-linejoin:miter;stroke-opacity:1" />
    <g
       transform="translate(-240.4661,8.6567797)"
       id="g943">
      <path
         inkscape:connector-curvature="0"
         id="path959"
         d="M 0,113.5 V 0 H 102 204 V 113.5 227 H 102 0 Z m 134.6307,107.16473 c -2.87136,-11.44042 -1.27731,-22.89109 3.56426,-25.60352 2.51117,-1.40684 3.37487,-1.28122 12.66407,1.8419 11.35072,3.81623 15.08164,3.70058 20.2246,-0.62694 3.14251,-2.64424 3.14251,-2.64424 2.47264,-10.32352 l -0.66987,-7.67927 3.3068,-2.76085 c 5.25034,-4.38351 5.30171,-5.0203 0.79902,-9.90515 -4.54043,-4.92578 -4.46253,-5.12395 2.99363,-7.61633 4.41062,-1.47433 4.50925,-1.60047 4.30032,-5.5 -0.37045,-6.91461 0.36764,-8.28408 5.98081,-11.09681 11.54232,-5.7838 11.35443,-7.61162 -3.00368,-29.2205 L 181.5,103.5 181.46394,86 C 181.42326,66.255314 180.20378,59.580906 174.39817,47.328132 172.52918,43.383604 171,39.423757 171,38.528472 171,33.603682 164.87884,25.74204 156.92604,20.452728 132.67018,4.3204624 94.057028,1.6250077 62.5,13.861163 42.517951,21.60915 23.927914,37.070698 16.644151,52 2.212353,81.580407 7.4825009,127.18447 28.402397,153.74739 c 6.1894,7.85896 9.028203,13.45767 10.057965,19.83641 C 39.441695,179.66255 42.4159,184 45.602789,184 h 2.632186 l -0.678892,7.75 c -0.90212,10.2983 -3.283506,25.40287 -4.516173,28.64503 L 42.049502,223 h 46.583657 46.583661 z"
         style="fill:#000000;opacity:1;fill-opacity:0" />
      <path
         inkscape:connector-curvature="0"
         id="path957"
         d="M 52.232903,134.87332 C 37.727002,132.49989 25,120.68366 25,109.58928 25,107.67805 24.149791,104.6261 23.110646,102.80716 20.53579,98.300086 19.785197,93.177472 21.086473,88.992663 21.683801,87.071698 22.378857,82.125 22.631043,78 c 0.870248,-14.234636 6.25329,-25.657293 15.835322,-33.602087 2.585651,-2.143852 5.363306,-5.161065 6.172568,-6.704917 2.022677,-3.858723 9.671728,-8.484563 15.24094,-9.217111 2.54107,-0.334241 6.2922,-1.498172 8.335845,-2.586515 2.043645,-1.088342 6.993645,-2.360791 11,-2.827663 4.006355,-0.466872 8.551077,-1.34675 10.099382,-1.955283 4.099063,-1.611063 18.48979,-1.353534 24.52556,0.438897 2.86201,0.849927 5.60263,1.298745 6.09026,0.997374 1.71068,-1.057259 16.62039,1.61377 21.56908,3.864035 6.05545,2.753528 11.14801,6.908874 12.08494,9.86088 0.3805,1.198874 2.61387,4.047783 4.96304,6.330908 7.49412,7.283457 8.67815,11.340277 8.43522,28.901482 -0.0624,4.510648 -0.75269,8.422487 -1.94108,11 -1.01434,2.2 -2.58009,5.613827 -3.47944,7.586283 -5.54966,12.171497 -22.04304,20.042537 -38.66709,18.452857 -5.61861,-0.53728 -7.61717,-0.25035 -13.38937,1.9223 -3.73173,1.40462 -9.30974,2.83191 -12.395589,3.17176 -4.193959,0.46189 -6.368124,1.31543 -8.610631,3.3804 -1.65,1.51937 -4.4625,3.49943 -6.25,4.40013 -1.7875,0.9007 -3.25,2.28607 -3.25,3.07862 0,2.24621 -6.504828,8.19839 -10.183999,9.31877 -5.340217,1.62619 -10.942813,1.98506 -16.583098,1.0622 z m 13.170863,-3.9534 c 4.813426,-1.21204 9.288228,-4.84454 10.137814,-8.22956 0.338615,-1.34915 2.393384,-3.22029 5.131374,-4.67279 2.511635,-1.33242 5.497333,-3.68145 6.634886,-5.22008 C 89.099485,110.37416 90.054034,110 94.44466,110 c 5.291979,0 7.6133,-0.54617 16.28612,-3.83184 4.22237,-1.59964 6.74978,-1.87756 13.11009,-1.44161 16.34768,1.12049 32.12252,-6.763871 34.78894,-17.387727 0.38367,-1.528664 1.53476,-4.198308 2.55799,-5.932543 2.57601,-4.366024 3.23168,-15.279159 1.06222,-17.679909 -1.22871,-1.359697 -1.32822,-2.048171 -0.42639,-2.95 3.00696,-3.006965 0.40273,-9.599014 -6.24321,-15.803318 -2.04615,-1.910179 -4.32838,-4.905725 -5.07163,-6.656769 C 147.89133,32.149669 137.53278,27.299515 125.03712,26.389754 120.89171,26.087943 114.1796,25.143726 110.12133,24.291495 101.91565,22.568315 93.278017,23.021344 87.383979,25.48403 85.388454,26.317813 81.702784,27 79.1936,27 76.684417,27 72.801873,27.863493 70.565724,28.918873 68.329576,29.974253 63.8,31.378837 60.5,32.04017 54.456518,33.251309 53.998615,33.586506 44.84508,43.5 44.337243,44.05 41.576848,46.768384 38.71087,49.540853 30.52679,57.457908 28.010602,63.078899 26.253571,77.369591 24.06416,95.177021 24.121351,97.962574 26.752163,101.65437 28.307317,103.8367 29,106.24021 29,109.45403 c 0,14.06431 19.689673,25.67454 36.403766,21.46589 z M 37.449575,109.22959 C 38.179798,105.9049 36.143895,103 33.083559,103 29.592421,103 27.734042,99.54319 28.40921,94.305148 28.749864,91.662316 29.13465,88.4875 29.26429,87.25 c 0.327113,-3.122499 1.219348,-2.821559 3.743528,1.26265 1.194015,1.931957 3.061354,3.989186 4.149642,4.57162 1.841594,0.985591 1.870047,1.224803 0.410622,3.452167 -2.256143,3.443311 -1.98831,4.261143 1.931918,5.899113 4.405611,1.84079 4.542435,4.41763 0.397291,7.48226 l -3.102709,2.29394 z m 54.07871,-5.77091 c -1.578798,-2.49773 -3.356034,-4.36 -3.949414,-4.138386 C 86.985492,99.541908 85.6,99.391115 84.5,98.985199 c -1.1,-0.405917 -2.522438,-0.321792 -3.160972,0.186944 -2.536748,2.021087 -2.355871,-2.967523 0.217921,-6.010304 0.157322,-0.185989 2.39248,0.896295 4.967019,2.405075 5.111372,2.995464 7.193075,2.5518 13.134243,-2.79924 2.236229,-2.01411 2.825979,-16.414998 0.861759,-21.043197 C 99.349902,68.967496 97,71.569747 97,75.622445 c 0,3.970348 -0.557166,4.142204 -3.738793,1.153221 -1.302232,-1.223384 -4.931235,-3.585884 -8.064451,-5.25 -6.747498,-3.583737 -7.681288,-6.132043 -3.704305,-10.109026 2.303278,-2.303278 3.156511,-2.54641 6.943359,-1.978537 6.811812,1.021495 7.611286,-4.277367 0.975762,-6.467287 -4.462358,-1.472711 -4.303406,-2.967547 0.838428,-7.884847 6.633641,-6.343963 12.59835,-5.304037 17.76805,3.097794 3.86123,6.275299 3.78151,7.014915 -1.17968,10.944248 -4.16162,3.296069 -4.16162,3.296069 -3.51298,0.71165 0.37877,-1.509136 0.0557,-3.781692 -0.77655,-5.46204 C 101.76498,52.79493 100.21181,49.3625 99.097357,46.75 95.472188,38.251898 92.903695,41.80876 96.009013,51.026755 98.864111,59.501982 98.666889,61.87156 95,63.149845 89.358359,65.116531 91.742559,68 99.010359,68 c 5.866161,0 6.816631,1.411097 8.502571,12.623073 0.674,4.482319 -1.03488,9.908084 -3.85803,12.249372 -0.91019,0.754844 -1.6549,2.667344 -1.6549,4.25 0,3.466205 -0.59679,3.590275 -3.018725,0.627555 -2.766384,-3.384076 -4.618312,-1.15369 -2.926595,3.52467 2.62159,7.24988 -0.402098,8.70882 -4.526395,2.18401 z M 70.22583,97.996262 C 68.425037,96.898318 66.43547,96 65.804571,96 c -0.630899,0 -2.006918,-0.778134 -3.057819,-1.729186 -1.810981,-1.638916 -1.961248,-1.638916 -2.878431,0 C 57.895622,97.795831 54,95.824738 54,91.301581 c 0,-1.142099 0.575744,-1.347374 2.25,-0.802214 1.2375,0.402946 3.912325,0.671412 5.944055,0.59659 3.060654,-0.112714 4.566695,0.638988 8.783379,4.384001 5.291819,4.699882 4.912526,5.969722 -0.751604,2.516304 z M 134,55.246753 c 0,-0.414287 1.29601,-1.976473 2.88002,-3.471526 5.43899,-5.133529 22.02185,-4.248529 16.87285,0.900476 -1.36083,1.360827 -2.03197,1.293474 -6.38675,-0.640946 L 142.5,49.87319 139.92717,52.936595 C 137.59404,55.7146 134,57.115404 134,55.246753 Z"
         style="fill:#edc50a" />
      <path
         inkscape:connector-curvature="0"
         id="path955"
         d="M 44.848666,95.781208 C 44.066428,94.526544 42.890119,92.2625 42.234646,90.75 41.579174,89.2375 40.635714,88 40.13807,88 c -0.497644,0 -1.131053,-0.865166 -1.407576,-1.92259 -0.31791,-1.215689 -1.55576,-2.042973 -3.366631,-2.25 -2.582083,-0.295196 -2.846805,-0.670634 -2.690492,-3.815753 0.09535,-1.918588 -0.279877,-3.768464 -0.833846,-4.110836 -0.583744,-0.360774 -0.341308,-0.878027 0.576629,-1.230273 C 33.287269,74.33627 34,74.540168 34,75.123656 c 0,1.639381 3.795226,6.079827 6.696063,7.83445 1.94492,1.176419 3.060934,3.227285 4.381624,8.051982 1.9549,7.141571 1.904427,8.193048 -0.229021,4.77112 z M 87,89 C 86.175,88.466844 83.8125,88.023735 81.75,88.015313 76.712057,87.994741 77.019408,86.349256 82.5,84 88.616962,81.377964 88.481355,79.521813 82.25,80.57807 69.922074,82.667737 62.71078,77.66893 67.502775,70.35542 c 2.217634,-3.384536 2.041426,-3.435573 -6.014042,-1.741885 -9.833277,2.067477 -11.963833,1.040329 -11.011724,-5.308787 0.382575,-2.551195 1.370544,-5.668645 2.195487,-6.927666 1.869114,-2.852629 1.235833,-3.922202 -3.186424,-5.381679 -3.590702,-1.185038 -4.349088,-2.732387 -2.329188,-4.752287 0.875846,-0.875846 1.866193,-0.560041 4.076726,1.3 C 52.839522,48.894402 54.793924,50 55.576725,50 c 2.155655,0 1.713409,3.493936 -1.159973,9.164282 -2.286406,4.512005 -2.412343,5.268698 -1.095961,6.58508 C 55.433882,67.862453 57,66.454185 57,62.440983 c 0,-3.371749 2.892767,-5.041541 4.428686,-2.556371 0.300697,0.486537 2.689754,1.196603 5.309017,1.577925 8.722274,1.269821 11.923685,6.292788 7.780674,12.207764 -2.303393,3.288554 0.09342,4.780591 5.388936,3.354657 5.07959,-1.367791 8.345239,0.115613 13.492318,6.128818 4.792298,5.598723 4.286801,8.192714 -0.840761,4.314421 C 89.730226,85.328718 87.658675,85.58677 88.289749,88 88.577405,89.1 88.74239,89.993109 88.65638,89.984687 88.570371,89.976265 87.825,89.533156 87,89 Z M 78.624183,49.965214 C 75.087274,45.761836 75.308628,42.771028 79.5,38.13168 85.239803,31.778404 83.212937,30.965981 75.42922,36.5 c -5.69679,4.050269 -7.89976,4.357823 -9.520648,1.329165 -1.478694,-2.762965 1.196865,-5.09179 4.808478,-4.185333 1.659815,0.416587 3.084457,-0.04818 4.646837,-1.515961 1.239239,-1.164204 4.251826,-2.54631 6.694638,-3.071345 2.442811,-0.525036 7.492974,-1.742126 11.222583,-2.704645 5.997956,-1.547924 7.730312,-1.603389 15.000002,-0.480261 4.52039,0.698376 10.66535,1.471521 13.65547,1.7181 3.10784,0.256286 8.90815,1.93939 13.54114,3.929302 8.37884,3.59878 10.00466,4.070503 9.12529,2.647645 -0.28327,-0.458334 0.14017,-0.833334 0.94098,-0.833334 0.8008,0 1.27214,0.183873 1.0474,0.408607 -0.22473,0.224733 -0.0412,1.689714 0.40788,3.255513 0.80804,2.817457 0.77864,2.841192 -2.84139,2.29449 -2.01184,-0.303829 -4.08538,-0.94381 -4.60788,-1.42218 C 139.0275,37.391393 136.52121,37 133.98047,37 c -4.2286,0 -4.74059,0.270013 -6.05,3.190643 -2.44838,5.461072 -4.26761,4.896078 -3.44699,-1.070523 C 125.24449,33.58694 124.44266,32.748394 121.5,36 c -2.6512,2.929544 -3.24067,2.52079 -3.96584,-2.75 l -0.65351,-4.75 -4.46939,-0.09658 c -2.45817,-0.05312 -5.59041,-0.696524 -6.96054,-1.429793 -3.28126,-1.756078 -5.15927,-0.166091 -3.48935,2.954192 0.95638,1.787002 1.71922,2.035126 4.59705,1.495241 C 110.38601,30.705 115,32.945969 115,35.523051 c 0,1.938637 -1.42135,1.879099 -3.08823,-0.12936 -1.04532,-1.259539 -2.31306,-1.454876 -5.87244,-0.904844 -2.49663,0.385805 -5.88933,0.8306 -7.53933,0.988433 -1.65,0.157834 -3.550944,0.340014 -4.22432,0.404844 -0.673376,0.06483 -1.889655,1.40449 -2.702842,2.97702 -1.735458,3.356007 -6.507943,5.624942 -9.992141,4.750464 -4.513829,-1.132899 -4.470274,3.208411 0.05286,5.269291 1.387946,0.63239 2.347566,1.677718 2.132489,2.32295 -0.759009,2.277026 -2.547189,1.846962 -5.141867,-1.236637 z M 89,37.706296 c 0,-0.576848 0.781526,-1.912391 1.736725,-2.967874 C 92.836634,32.418049 90.497978,30 86.153883,30 c -2.338769,0 -2.378392,0.09444 -0.780449,1.860146 1.245103,1.375824 1.453025,2.482387 0.798569,4.25 -1.215735,3.283563 -0.439901,5.357079 1.425243,3.809147 C 88.368761,39.278993 89,38.283144 89,37.706296 Z m 41,-3.649592 C 130,31.704755 126.40423,29 123.27749,29 c -3.31119,0 -2.79828,1.574014 1.45464,4.463949 C 129.21542,36.510418 130,36.598702 130,34.056704 Z M 98,31.622445 C 98,28.337219 95.509418,26.332331 93.5,28 c -1.810876,1.502894 -1.915948,3.184052 -0.3,4.8 2.102416,2.102416 4.8,1.440634 4.8,-1.177555 z"
         style="fill:#f26e08" />
      <path
         inkscape:connector-curvature="0"
         id="path953"
         d="m 112.05197,98.636695 c -0.49419,-1.299818 -1.83305,-2.607689 -2.97525,-2.906381 C 107.01952,95.192344 106.00829,91 107.93572,91 c 0.51465,0 3.38011,-2.483725 6.36769,-5.519388 6.30591,-6.4074 10.28013,-6.336386 12.77601,0.228291 1.43265,3.768133 3.54507,2.640969 5.54531,-2.958903 2.07912,-5.820695 5.19987,-7.997096 13.12527,-9.153508 3.79715,-0.554051 4.25,-0.405762 4.25,1.39169 C 150,76.094682 149.35714,77 148.57143,77 c -1.89345,0 -4.74419,2.911445 -4.01152,4.096932 0.31806,0.51463 0.99719,0.676794 1.50919,0.360363 0.51199,-0.316431 0.9309,-0.114604 0.9309,0.448504 0,0.563109 -0.85267,1.480167 -1.89482,2.037908 -1.04215,0.557742 -2.3805,2.407327 -2.97412,4.110191 -1.55636,4.464564 -3.36405,2.687079 -2.96318,-2.913668 0.44888,-6.271527 -1.28508,-6.18692 -3.35537,0.163724 -3.30942,10.151679 -11.83491,12.84062 -15.01948,4.737143 -0.94302,-2.399619 -1.14558,-2.165285 -3.63808,4.208903 -2.85231,7.29435 -3.7154,8.03629 -5.10298,4.386695 z M 70.58685,90.336597 c -2.147027,-1.858255 -3.63627,-2.376713 -5.662781,-1.971411 -1.757002,0.351401 -3.186324,0.02374 -3.959294,-0.90763 -1.62562,-1.958752 -3.651938,-1.838983 -4.841221,0.286149 -0.905473,1.617991 -1.148016,1.581942 -3.364142,-0.5 C 51.445839,86.009667 49.837601,85 49.185549,85 48.533497,85 48,84.56753 48,84.038955 c 0,-1.620639 -4.350432,-5.118459 -5.714889,-4.594868 -1.919933,0.736747 -1.554671,-1.256784 0.848689,-4.631992 2.299479,-3.22932 1.427458,-3.150726 14.049398,-1.266256 4.393115,0.655897 5.063105,1.189321 10.816563,8.61179 6.480838,8.360853 7.869437,12.75085 2.587089,8.178968 z M 66.255202,56.85449 C 62.269023,55.737826 59.685335,52.101908 60.518657,48.781687 61.251034,45.863667 59.133886,43.75 55.478684,43.75 54.095347,43.75 52.738302,43.385581 52.463029,42.94018 51.812829,41.888135 58.21785,37 60.246566,37 61.843168,37 64,41.7498 64,45.265855 c 0,1.580235 0.442785,1.830171 2.25,1.270043 5.693696,-1.764704 6.75,-1.785069 6.75,-0.130132 0,0.901406 1.8,3.59169 4,5.978408 2.2,2.386718 4,4.530493 4,4.763944 0,0.830222 -11.554334,0.600129 -14.744798,-0.293628 z m 64.395788,-8.610187 c -0.25688,-0.415634 -0.22019,-2.047062 0.0815,-3.625397 0.53891,-2.819116 0.64218,-2.86004 5.85859,-2.321658 2.92051,0.301423 6.11977,1.060226 7.10946,1.686227 1.53196,0.969003 1.36084,1.069732 -1.15124,0.677665 -2.03167,-0.317086 -4.05058,0.286884 -6.48214,1.939171 -3.77246,2.563453 -4.67806,2.838332 -5.4162,1.643992 z"
         style="fill:#052aea" />
      <path
         inkscape:connector-curvature="0"
         id="path951"
         d="m 61.410934,123.50441 c -1.150541,-1.75595 -1.439597,-3.53809 -0.97529,-6.01305 1.177938,-6.27895 -2.493112,-5.99152 -6.496386,0.50864 -0.995964,1.61716 -6.217005,-3.47525 -7.508712,-7.32372 -1.044958,-3.11331 1.601421,-7.65194 5.672768,-9.72899 5.219081,-2.662573 7.402571,-2.449952 9.828592,0.95708 2.626573,3.68868 2.597868,4.25783 -0.181906,3.6067 -2.782618,-0.65179 -14.016349,2.78798 -14.574603,4.46274 -0.313096,0.93929 1.582384,1.05931 8.12398,0.51439 8.441758,-0.70319 8.535907,-0.68566 8.866491,1.65053 0.542963,3.83705 3.220218,2.85336 3.918015,-1.43958 0.339796,-2.09046 1.07244,-4.25547 1.628099,-4.81113 1.878226,-1.87823 12.101638,-2.0703 15.837437,-0.29754 6.293137,2.98628 3.859129,4.32792 -6.046748,3.33298 -8.672756,-0.87108 -11.861005,1.00986 -5.48139,3.2338 l 3.021281,1.05323 -3.271281,3.79594 c -1.799205,2.08776 -4.079789,4.9654 -5.067966,6.39475 -2.268379,3.2811 -5.183125,3.32236 -7.292381,0.10323 z m 63.171376,-21.37122 c -1.58615,-2.566454 2.70583,-5.118153 11.91769,-7.085384 7.20403,-1.538453 10.58971,-3.187357 16.23669,-7.907647 C 157.07504,83.51375 158.20632,81 155.5,81 c -0.825,0 -1.5,-0.675 -1.5,-1.5 0,-0.825 0.675,-1.5 1.5,-1.5 0.825,0 1.5,0.675 1.5,1.5 0,0.825 0.585,1.5 1.3,1.5 0.82117,0 1.3,-1.3003 1.3,-3.530242 0,-2.052529 -0.43952,-3.363029 -1.05,-3.130774 -0.64252,0.244445 -1.05219,-1.463028 -1.05564,-4.399894 -0.005,-4.156547 0.28977,-4.855832 2.1999,-5.220977 2.73841,-0.523479 3.89318,1.895004 1.23654,2.589731 -1.16984,0.305922 -1.9308,1.372209 -1.9308,2.705525 0,1.545254 0.44671,2.02919 1.5,1.625005 2.25659,-0.865936 1.98787,6.462136 -0.34751,9.476767 -1.01613,1.311673 -2.15638,3.648957 -2.53389,5.193965 -1.03609,4.240356 -8.03177,11.192158 -13.72928,13.64316 -5.88826,2.533064 -18.2279,3.926954 -19.30701,2.180924 z"
         style="fill:#f00505" />
      <path
         inkscape:connector-curvature="0"
         id="path949"
         d="m 46.589812,127.52279 c -5.633576,-2.31602 -12.597696,-7.91491 -14.749994,-11.85844 -1.640392,-3.00559 -0.137814,-3.08894 2.591688,-0.14376 1.431988,1.54515 4.294917,3.1223 6.555384,3.61129 2.207211,0.47746 5.70061,1.23933 7.76311,1.69303 6.287207,1.38305 13.868383,6.36551 12.660163,8.32045 -1.021031,1.65206 -8.972581,0.78151 -14.820351,-1.62257 z M 116.5,74.201472 c -7.53494,-2.668333 -10.05099,-5.669372 -6.92691,-8.26213 1.8253,-1.514868 5.42886,-8.2595 5.42272,-10.149504 -0.008,-2.502309 -5.04808,-11.317438 -7.71596,-13.495584 -3.83017,-3.127073 -2.38991,-3.722636 5.42166,-2.241915 8.38514,1.589444 9.35693,2.348958 5.53457,4.325578 -5.26424,2.722247 -5.03796,8.219737 0.23936,5.815227 3.69152,-1.681969 10.02469,-1.500376 11.54462,0.331022 0.69572,0.838291 1.08832,1.642368 0.87244,1.786838 -1.75111,1.171888 -8.78651,5.45205 -10.37893,6.314283 -1.09254,0.591564 -2.07622,2.243598 -2.18594,3.671186 -0.10973,1.427589 -0.67955,3.492586 -1.26627,4.588883 -0.70656,1.320204 -0.72819,2.202522 -0.0641,2.612973 1.23257,0.761771 2.27383,0.157177 8.06706,-4.684042 5.69947,-4.762869 7.61487,-4.826235 9.50009,-0.314287 1.73701,4.157267 2.87629,4.585923 2.15461,0.810678 -0.38548,-2.016522 0.27333,-3.638147 2.63342,-6.481974 3.87165,-4.665199 4.29301,-4.67997 9.37649,-0.328704 2.24893,1.925 4.52482,3.5 5.05755,3.5 0.53272,0 1.58619,0.748633 2.34104,1.663629 1.25571,1.52213 0.99781,1.604077 -3.03218,0.963458 -5.60576,-0.891108 -6.31395,-1.363081 -5.56867,-3.711244 1.03769,-3.269463 -3.22606,-2.397912 -4.99395,1.020812 -2.03088,3.927292 -1.11277,6.114424 2.30769,5.497414 1.46275,-0.263863 4.68455,0.190729 7.15955,1.010204 l 4.5,1.489955 -5,0.068 c -10.31964,0.140355 -12.01276,0.260571 -12.5,0.887542 -1.58027,2.033452 -18.90773,4.58382 -22.5,3.311698 z M 40.637783,70.222937 c -0.554796,-0.897678 -0.816545,-10.236374 -0.402724,-14.368351 0.340694,-3.401801 3.731359,-7.288168 5.134447,-5.88508 0.689017,0.689017 0.280253,2.012946 -1.268107,4.107215 l -2.284871,3.090453 2.341736,-0.194278 C 48.243143,56.634001 49,56.950877 49,59 c 0,1.886985 -0.443377,2.158508 -3.929083,2.406163 -1.521726,0.108117 -3.365401,5.273527 -2.609783,7.311812 0.520568,1.404238 -1.072801,2.719378 -1.823351,1.504962 z"
         style="fill:#076b30" />
      <path
         inkscape:connector-curvature="0"
         id="path947"
         d="m 86.647628,109.76531 c -1.227218,-0.78564 1.077599,-1.13468 5.214718,-0.78971 1.29929,0.10834 2.119828,-0.19543 1.823419,-0.67503 -0.29641,-0.4796 0.294996,-0.872 1.314235,-0.872 1.019239,0 1.653571,0.32295 1.409627,0.71766 -0.243945,0.39471 0.801593,0.88402 2.323418,1.08736 1.521825,0.20334 -0.316612,0.57146 -4.085417,0.81806 -3.768804,0.24659 -7.368804,0.11774 -8,-0.28634 z M 149,98.564778 c 0,-0.462614 1.78475,-2.777343 3.96611,-5.143842 2.18137,-2.366498 4.26842,-5.566822 4.63789,-7.11183 0.36948,-1.545008 1.03398,-3.274198 1.47669,-3.842644 0.4427,-0.568447 0.44327,-1.618677 0.001,-2.333846 -0.63136,-1.021571 -0.93392,-0.960791 -1.41141,0.283538 C 157.33627,81.287269 156.5665,82 155.95996,82 c -0.60655,0 -0.39567,-0.707143 0.46861,-1.571429 0.86429,-0.864285 1.58738,-2.101785 1.60687,-2.75 0.0195,-0.648214 0.62608,-0.113267 1.34798,1.188771 1.58707,2.862486 2.61658,1.124304 2.61658,-4.417745 0,-2.773339 -0.31699,-3.284855 -1.75,-2.82388 -1.47714,0.475172 -1.51612,0.394705 -0.25,-0.516072 0.825,-0.593461 1.8375,-1.08591 2.25,-1.094332 1.50794,-0.03079 0.69689,8.313931 -1.15159,11.848532 -1.04588,1.999885 -2.42403,5.034818 -3.06256,6.744296 C 156.92609,91.579175 149,100.31297 149,98.564778 Z M 50.217909,37.796442 C 54.27361,34.00785 58.222184,32 61.617007,32 c 3.625949,0 2.259539,1.226515 -1.714706,1.539152 C 56.33547,33.81974 51.5,37.02453 51.5,39.107921 c 0,0.765643 -0.993333,1.442219 -2.207406,1.5035 -2.042455,0.103095 -1.97331,-0.107257 0.925315,-2.814979 z m 97.093921,-1.745215 c -0.91772,-1.071825 -2.04234,-1.717779 -2.49916,-1.435452 -1.7438,1.077727 -4.72163,-0.688741 -4.07441,-2.416967 0.55823,-1.490616 0.42662,-1.528284 -1.07392,-0.307364 -1.51893,1.235876 -1.63073,1.179975 -1,-0.5 0.62731,-1.670869 0.51336,-1.731393 -0.97711,-0.518999 C 136.64047,31.723915 136,31.830727 136,31.15383 136,30.547037 135.26141,30.346192 134.33596,30.701324 133.11991,31.167963 132.89485,30.979149 133.5,30 c 0.60515,-0.979149 0.38009,-1.167963 -0.83596,-0.701324 C 131.5775,29.715623 131,29.427555 131,28.468615 c 0,-1.813424 -0.0916,-1.815503 5.63213,0.127765 5.44535,1.848745 11.97396,5.934722 12.76143,7.986837 0.76258,1.987258 -0.11718,1.762432 -2.08173,-0.53199 z M 75.339748,31.259293 c 0.356821,-0.577348 0.0054,-1.296597 -0.780884,-1.598331 -0.786307,-0.301734 -1.627472,-0.01139 -1.869256,0.645215 -0.338953,0.92048 -0.734478,0.916125 -1.727447,-0.01902 -1.034949,-0.974676 -0.752159,-1.416505 1.440099,-2.25 3.619852,-1.376266 4.464107,-1.313651 6.240597,0.462839 1.803136,1.803135 0.332969,2.034289 -1.590036,0.25 -1.098688,-1.019434 -1.23586,-0.933115 -0.743674,0.467975 0.331928,0.944886 0.10363,2.026915 -0.507329,2.404508 -0.633081,0.391266 -0.831811,0.235063 -0.46207,-0.36319 z M 116,28.109645 c 1.24745,-0.897345 1.12117,-1.081598 -0.75,-1.094332 -1.2375,-0.0084 -2.25105,-0.352813 -2.25233,-0.765313 -0.001,-0.4125 3.41184,-0.600615 7.5847,-0.418034 8.04674,0.352081 9.3184,1.332121 2.18193,1.68157 -2.34536,0.114845 -5.1643,0.538731 -6.2643,0.941969 -1.60098,0.586888 -1.70074,0.517886 -0.5,-0.34586 z"
         style="fill:#5a260d" />
      <path
         inkscape:connector-curvature="0"
         id="path945"
         d="m 43,222.0651 c 0,-0.5142 0.431699,-2.07036 0.959332,-3.45813 1.004228,-2.64132 3.565537,-19.99806 4.406089,-29.85791 0.477126,-5.59679 0.428722,-5.7355 -1.805749,-5.17468 -3.193738,0.80158 -6.136628,-3.21074 -7.61713,-10.38514 C 37.449857,165.9558 35.544812,162.29678 28.431144,153 8.4685676,126.91111 3.0540508,82.339499 16.354873,53.589672 26.45052,31.767857 53.346199,13.96073 84.385369,8.5479515 122.5794,1.8874695 164.11696,15.864356 170.16383,37.411364 c 0.63108,2.24875 2.41236,6.821482 3.9584,10.161626 5.49405,11.869641 6.27479,16.361484 6.36533,36.621491 l 0.0836,18.694479 4.56733,6.80552 c 14.53293,21.65468 15.72907,26.32901 7.63306,29.82899 -7.25057,3.13448 -8.7715,5.0717 -8.7715,11.17228 0,5.73789 -0.5443,6.31741 -7.29282,7.76484 -4.32969,0.92864 -4.43485,3.20988 -0.34124,7.40212 4.53213,4.64133 4.52507,4.77906 -0.47944,9.35363 -4.43603,4.05494 -4.30623,3.22134 -2.18204,14.01283 0.42873,2.17806 -0.17377,3.44014 -2.98363,6.25 -4.43312,4.43312 -9.56722,4.69066 -19.43859,0.97509 -13.77416,-5.18458 -18.27765,-2.09228 -18.28069,12.55234 -8.5e-4,4.12863 0.41704,8.96613 0.92864,10.75 L 134.86044,223 H 88.930244 C 61.108895,223 43,222.6314 43,222.0651 Z m 29.169881,-89.31877 c 2.461943,-1.44279 5.276774,-4.16053 6.324837,-6.10666 1.038703,-1.92876 3.039815,-4.07691 4.446916,-4.77368 1.407101,-0.69677 3.908366,-2.4693 5.558366,-3.93895 1.98538,-1.76838 4.631261,-2.88124 7.823269,-3.29048 2.652798,-0.34011 8.052801,-1.80126 12.000001,-3.24701 5.99088,-2.19427 8.63483,-2.59533 16.00109,-2.42718 15.09653,0.34461 24.82327,-3.13647 32.90471,-11.776177 2.5792,-2.757378 5.00645,-6.276417 5.39389,-7.820087 0.38744,-1.54367 1.54126,-4.224992 2.56405,-5.958494 2.34905,-3.981347 3.96506,-16.132116 2.51464,-18.907612 -0.57484,-1.1 -0.9471,-3.913219 -0.82725,-6.251597 C 167.15146,52.84297 165.17025,48.70435 159.22973,42.27919 156.62838,39.465618 153.6,35.700555 152.5,33.912384 148.59767,27.568711 134.75207,22 122.88201,22 120.25057,22 115.50608,21.325 112.33869,20.5 104.4537,18.44622 94.689671,18.646807 88,21 c -3.025,1.06409 -7.756664,1.949399 -10.514809,1.967354 -2.895148,0.01885 -6.487931,0.813785 -8.5,1.880707 -1.916855,1.016434 -5.484597,2.160649 -7.928316,2.5427 -6.50613,1.017168 -13.801485,5.377691 -17.157214,10.255077 -1.597381,2.321714 -4.272879,5.195791 -5.945552,6.386839 C 29.291348,50.201107 24.014417,61.432145 21.994478,78 19.6704,97.062454 19.66782,96.48102 22.099429,101.65247 c 1.253616,2.66614 2.169165,6.05617 2.034553,7.53341 -0.66861,7.33736 8.139449,18.82462 17.690348,23.07132 10.489138,4.66388 22.881045,4.86362 30.345551,0.48913 z M 48.5,129.60769 C 36.4273,125.80925 27.565822,115.5624 29.542547,107.6865 c 0.412142,-1.6421 -0.203914,-3.57226 -1.971545,-6.17701 -2.6997,-3.978231 -3.424034,-10.047068 -1.60485,-13.446244 0.531383,-0.992899 1.093883,-5.230893 1.25,-9.417765 0.156116,-4.186871 0.433848,-7.169915 0.617181,-6.628987 0.681489,2.010744 2.02958,0.882099 2.707175,-2.266494 0.569288,-2.645322 2.837838,-7.981024 7.286975,-17.139196 0.237589,-0.489057 -0.188899,-0.552435 -0.947751,-0.140839 C 36.120879,52.881561 38.425,50.391074 42,46.93555 c 3.575,-3.455524 6.866812,-6.194876 7.315137,-6.087448 0.448326,0.107427 2.023326,-0.643559 3.5,-1.668859 C 54.291812,38.153942 57.975,36.068811 61,34.545618 c 3.025,-1.523193 6.305805,-3.184326 7.290677,-3.691407 0.984873,-0.507081 2.170681,-0.68711 2.635131,-0.400064 C 72.089037,31.173062 78,29.020533 78,27.878017 c 0,-0.509482 1.6875,-0.862607 3.75,-0.78472 2.0625,0.07789 5.55,-0.566491 7.75,-1.43195 2.505745,-0.985736 6.801728,-1.533673 11.5,-1.466782 l 7.5,0.106778 -9,0.680635 C 94.298921,25.375315 89.149129,26.366972 87.29966,27.331306 85.539473,28.249088 82.705486,29 81.001911,29 c -2.024367,0 -3.904931,0.87133 -5.428377,2.515156 -1.466663,1.582556 -2.932956,2.284151 -3.954487,1.892153 -4.837638,-1.856376 -8.231056,2.005878 -5.292851,6.024112 1.644666,2.249215 4.117637,1.586715 9.223552,-2.470956 C 77.598642,35.332209 80.173819,34 81.272363,34 c 1.763164,0 1.674208,0.254187 -0.758684,2.1679 -3.257799,2.562585 -5.756027,7.979333 -4.854731,10.526203 1.560271,4.408996 7.425965,8.180878 8.507719,5.470813 C 84.869451,50.404266 93,55.00993 93,57.168682 c 0,1.841016 -0.429455,2.023312 -3.567052,1.51415 -4.257682,-0.690927 -7.830065,0.748107 -9.971845,4.016877 -2.281887,3.482599 -0.971581,6.00792 4.575913,8.819049 2.689035,1.362636 6.517801,3.907492 8.508369,5.655234 4.090826,3.591793 5.411948,2.8816 5.439302,-2.923992 0.01564,-3.31825 1.367618,-4.380249 2.342403,-1.839989 0.94471,2.461858 0.99695,17.193694 0.0664,18.7272 C 99.275552,92.979571 92.74073,97 90.864101,97 c -0.769908,0 -3.055418,-1.125 -5.078913,-2.5 -4.576124,-3.109557 -4.32041,-3.138037 -6.232131,0.6941 -1.464354,2.935367 -1.460575,3.320134 0.04666,4.75 0.994624,0.94357 1.795885,1.14371 2.03597,0.50854 0.72556,-1.919529 7.426011,-0.39638 8.423658,1.91487 0.506265,1.17287 1.65491,3.14499 2.552543,4.38249 2.407139,3.31854 -1.274512,3.09825 -4.466844,-0.26728 C 86.055164,104.27947 84.965705,104 78.466469,104 70.238267,104 68,105.2722 68,109.94898 c 0,4.38452 -2.586226,5.86989 -3.37278,1.93712 -0.68506,-3.4253 -1.213139,-3.478 -13.011427,-1.29842 -6.090989,1.12524 -4.113396,-1.59145 2.433744,-3.34332 6.304754,-1.68701 6.849762,-1.73182 9.200463,-0.75648 2.551751,1.05875 2.190376,-1.04396 -0.868689,-5.0546 -3.067586,-4.021814 -4.05078,-4.152714 -9.667765,-1.28714 -7.427616,3.78928 -8.679408,8.40962 -4.077545,15.05011 3.118462,4.49994 4.526042,4.72508 7.136518,1.14147 2.612899,-3.58693 5.802131,-2.69304 4.056997,1.13711 -0.908643,1.99425 -0.861976,3.096 0.216495,5.11114 2.997511,5.6009 7.064179,5.20787 10.936038,-1.05692 1.188441,-1.92294 3.291383,-4.38557 4.673203,-5.47251 2.969435,-2.33576 2.462028,-3.65223 -1.765556,-4.58077 -1.698053,-0.37295 -2.705393,-1.03487 -2.238533,-1.47092 C 72.715275,109.01097 88,109.98118 88,111.04261 c 0,1.25191 -6.233888,6.14296 -9.105312,7.14395 -1.741953,0.60724 -3.158803,2.25814 -4.189146,4.88114 -2.747861,6.99537 -15.02218,10.05861 -26.205542,6.53999 z m 12.910163,-0.46233 c 1.20822,-1.95494 -6.372956,-6.9374 -12.660163,-8.32045 -2.0625,-0.4537 -5.555899,-1.21557 -7.76311,-1.69303 -2.260467,-0.48899 -5.123396,-2.06614 -6.555384,-3.61129 -2.729502,-2.94518 -4.23208,-2.86183 -2.591688,0.14376 2.152298,3.94353 9.116418,9.54242 14.749994,11.85844 5.84777,2.40408 13.79932,3.27463 14.820351,1.62257 z M 41.442806,109.0597 c 3.400034,-3.54887 2.904151,-5.44318 -1.877524,-7.17225 C 35.619263,100.46055 35.28755,99.83617 37.5,98 39.413026,96.41233 39.437236,93.381761 37.5427,92.654759 36.741185,92.347189 34.93554,90.274045 33.530155,88.047771 30.507147,83.259014 29,82.890794 29,86.940983 c 0,1.617541 -0.373687,3.171934 -0.830414,3.454207 -0.456728,0.282274 -0.744895,2.5661 -0.640371,5.07517 0.218326,5.24083 2.414992,8.27053 6.324739,8.72325 2.360905,0.27337 2.633754,0.71049 2.531983,4.05639 -0.138957,4.56845 1.243656,4.78983 5.056869,0.8097 z M 71.5,95.497755 c -4.783053,-4.383377 -6.52761,-5.408236 -8.601314,-5.052932 -2.825552,0.484123 -6.90798,-0.293681 -6.883373,-1.311454 0.06187,-2.559157 1.89434,-3.422961 4.149344,-1.955953 1.284439,0.835601 3.850243,1.558911 5.701788,1.607357 2.134205,0.05584 4.14462,0.923355 5.492397,2.370023 4.768024,5.117874 2.621781,-1.159579 -3.052474,-8.928047 C 62.686258,74.532409 62.339609,74.254169 57.5,73.552938 46.412589,71.946437 44.809891,72.19371 42.301227,75.897883 c -2.559552,3.779314 -3.05105,5.969304 -0.947965,4.223899 1.044201,-0.86661 2.014826,-0.494905 4.25,1.627555 1.593206,1.512865 4.00403,3.449628 5.357387,4.303919 1.853758,1.170163 2.493111,2.488075 2.59227,5.3435 0.179464,5.167961 2.913399,6.994069 5.939938,3.96753 1.220785,-1.220785 1.92381,-1.347619 2.771429,-0.5 C 62.888929,95.488929 64.008874,96 64.753054,96 c 0.744179,0 3.00864,1.125 5.032134,2.5 7.163593,4.86779 8.242081,2.9796 1.714812,-3.002245 z M 46.57713,94.25 C 45.803458,92.1875 44.870924,89.152517 44.504833,87.505594 43.677087,83.781844 42.249284,82 40.093163,82 37.473846,82 34.732165,76.495928 35.53369,72.846612 36.005996,70.696215 35.875574,69.958865 35.106933,70.433912 34.49812,70.810179 34,71.766476 34,72.559017 34,73.351558 33.325,74 32.5,74 31.675,74 31,74.675 31,75.5 c 0,0.825 0.440353,1.5 0.978561,1.5 0.598406,0 0.54129,0.959706 -0.147022,2.470386 -1.492516,3.275716 0.505184,5.912902 3.844258,5.074848 C 37.257245,84.148316 38,84.397816 38,85.32596 c 0,0.750236 0.9,2.178554 2,3.17404 1.1,0.995486 2,2.354544 2,3.020129 C 42,93.068816 45.854074,98 47.064483,98 c 0.505628,0 0.286319,-1.6875 -0.487353,-3.75 z m 42.496756,-5.660972 c -1.86201,-2.243586 0.443929,-2.800063 3.006006,-0.725419 C 94.245373,89.617109 98,89.687349 98,87.974359 98,87.538552 95.566994,84.609115 92.593319,81.4645 l -5.40668,-5.717481 -6.59332,0.706084 C 73.695103,77.19184 71.908566,75.980626 75.5,73 79.647273,69.558069 75.875484,62.555578 69.305777,61.500157 67.2126,61.163888 63.989764,60.223306 62.143921,59.409973 58.01003,57.588459 55.536977,59.019032 56.460278,62.697756 56.863136,64.30287 56.553963,65.23393 55.481435,65.645498 52.656048,66.7297 52.649985,65.117594 55.454629,58.51852 58.321328,51.773435 58.289629,49 55.345836,49 54.401523,49 52.567175,48.002559 51.269508,46.783464 48.670157,44.3415 45.371402,45.27516 45.637095,48.377628 c 0.0754,0.880467 -0.196685,1.39456 -0.60464,1.14243 -1.146089,-0.708321 -5.326437,4.195253 -4.590979,5.385248 0.358057,0.579348 0.249814,1.850161 -0.24054,2.824027 C 39.143492,59.829468 40.116708,70.5 41.365696,70.5 c 0.476133,0 1.017976,-1.697047 1.204095,-3.771216 0.383181,-4.270271 1.179068,-6.002032 2.409065,-5.241852 C 46.504542,62.429858 49,60.820112 49,58.893011 49,56.947983 48.214302,56.636394 44.158264,56.972896 l -2.341736,0.194278 2.279795,-3.083587 c 4.235929,-5.729402 10.077915,-3.138182 7.396014,3.280511 -0.878957,2.103639 -1.461805,5.694796 -1.29522,7.98035 L 50.5,69.5 l 5,0.08732 c 2.75,0.04803 6.562366,-0.264605 8.471925,-0.694741 4.300041,-0.968602 4.598491,-0.692782 2.58141,2.385674 -4.766161,7.27408 5.45006,12.721152 17.196665,9.168896 3.78173,-1.143622 2.576062,1.38977 -1.464955,3.078214 -5.596093,2.338197 -7.456982,6.110581 -2.474473,5.016238 1.545814,-0.339517 3.908314,-0.178796 5.25,0.357159 3.796921,1.516733 5.424876,1.391092 4.013314,-0.309736 z M 79.065475,58.035041 c 3.060929,1.63816 2.433795,-1.182528 -0.992816,-4.46543 C 76.462621,52.027097 74.591897,49.428966 73.915495,47.795987 72.650735,44.742586 72.249043,44.676554 66.25,46.535898 64.319492,47.13424 64,46.868392 64,44.663684 64,37.564803 60.761051,35.544981 55.318713,39.25 c -4.331168,2.94856 -4.190724,4.557098 0.431287,4.939635 3.597347,0.297731 3.773287,0.484852 4.322057,4.596708 0.314632,2.357489 1.333268,5.047553 2.263636,5.977921 2.260853,2.260853 9.582053,4.043334 12.479782,3.038432 1.335904,-0.463277 3.133883,-0.364982 4.25,0.232345 z m 17.73144,47.578809 c 0.217423,-1.86238 -0.09915,-4.31007 -0.703505,-5.43931 -1.637538,-3.05977 0.7737,-4.056876 3.040605,-1.257366 C 101.35709,101.66256 103,100.84464 103,96.992505 c 0,-1.69608 1.03253,-4.003579 2.5,-5.587006 2.12408,-2.291917 2.5,-3.657817 2.5,-9.08364 C 108,71.215017 104.992,67 97.065741,67 92.174735,67 91.589324,64.970946 96,63.306102 99.589608,61.951176 99.729942,60.434713 97,52.5 c -1.1,-3.197205 -2,-6.642653 -2,-7.65655 0,-2.341684 1.890338,-2.409741 2.595631,-0.09345 0.293074,0.9625 1.652134,4.169739 3.020129,7.127197 1.72616,3.731755 2.2942,6.256286 1.8563,8.25 -0.79674,3.627528 -0.25763,3.598352 4.52475,-0.244871 5.15913,-4.14599 5.43807,-5.284125 2.51677,-10.268933 C 103.22662,38.885491 97.093984,37.550067 89.265091,45.204142 84.631381,49.734383 84.424178,49.822484 81.75,48.399478 77.510481,46.143511 78.194348,44 83.15361,44 86.717359,44 87.831639,43.431953 91,40 c 2.868093,-3.106704 4.426978,-4 6.98037,-4 1.808175,0 4.99179,-0.510591 7.07471,-1.134647 3.3492,-1.003445 4.09891,-0.889389 6.48355,0.986375 1.48305,1.166562 3.09355,1.875596 3.57891,1.57563 3.56762,-2.204913 -3.35123,-7.588249 -8.64797,-6.728707 -2.67895,0.434733 -3.49566,0.121116 -4.48146,-1.720873 -1.14728,-2.143699 -1.06743,-2.218266 1.6532,-1.543905 1.57228,0.389721 3.86794,0.823276 5.10146,0.963456 1.23352,0.14018 2.53783,0.549933 2.89846,0.910563 0.36063,0.36063 1.61745,0.414303 2.79294,0.119274 1.55196,-0.389516 2.19476,-0.04221 2.34722,1.268208 0.81628,7.016096 1.05685,7.7835 2.34355,7.475871 0.75628,-0.180815 2.16532,-1.040556 3.13119,-1.910536 2.20762,-1.988442 3.25237,-1.079365 1.82489,1.587903 C 123.48646,38.95956 123,41.056097 123,42.507583 c 0,3.892496 3.07701,2.858292 5.35208,-1.79887 1.8847,-3.85806 4.714,-4.513252 10.64792,-2.465784 7.21925,2.490964 9.20514,2.649542 8.69382,0.694221 -0.72542,-2.774006 1.18017,-2.398776 2.26149,0.445311 0.4982,1.310353 2.20816,3.309815 3.79992,4.443248 1.59176,1.133433 4.14897,3.871546 5.68268,6.084696 2.76779,3.993925 2.89892,5.256784 1.30726,12.589595 -0.54657,2.518071 -3.02906,3.067791 -4.70958,1.042889 C 155.33133,62.6943 154.31924,62 153.78652,62 c -0.53273,0 -2.80862,-1.575 -5.05755,-3.5 -5.08348,-4.351266 -5.50484,-4.336495 -9.37649,0.328704 -2.36009,2.843827 -3.0189,4.465452 -2.63342,6.481974 0.72168,3.775245 -0.4176,3.346589 -2.15461,-0.810678 -1.88522,-4.511948 -3.80062,-4.448582 -9.50009,0.314287 -5.79323,4.841219 -6.83449,5.445813 -8.06706,4.684042 -0.66413,-0.410451 -0.6425,-1.292769 0.0641,-2.612973 0.58672,-1.096297 1.15654,-3.161294 1.26627,-4.588883 0.10972,-1.427588 1.0934,-3.079622 2.18594,-3.671186 1.59242,-0.862233 8.62782,-5.142395 10.37893,-6.314283 0.21588,-0.14447 -0.17672,-0.948547 -0.87244,-1.786838 -1.51993,-1.831398 -7.8531,-2.012991 -11.54462,-0.331022 -5.27732,2.40451 -5.5036,-3.09298 -0.23936,-5.815227 3.82236,-1.97662 2.85057,-2.736134 -5.53457,-4.325578 -7.81157,-1.480721 -9.25183,-0.885158 -5.42166,2.241915 2.66788,2.178146 7.70785,10.993275 7.71596,13.495584 0.006,1.890004 -3.59742,8.634636 -5.42272,10.149504 -4.10363,3.405707 2.5755,8.364196 11.42691,8.483177 5.80663,0.07805 18,-2.33197 18,-3.557707 0,-0.711307 1.05787,-0.789173 12,-0.883281 l 5.5,-0.0473 -4.5,-1.489955 c -2.475,-0.819475 -5.6968,-1.274067 -7.15955,-1.010204 -3.42046,0.61701 -4.33857,-1.570122 -2.30769,-5.497414 1.84707,-3.571841 5.57288,-4.116727 5.20545,-0.761277 -0.19815,1.809587 0.51847,2.365182 4.26179,3.304158 l 4.5,1.12878 v 5.20892 c 0,3.330139 0.39074,5.058248 1.08333,4.791182 0.61985,-0.239014 1.08334,0.784318 1.08334,2.391882 0,2.782113 -0.0164,2.789412 -1.67138,0.74555 -0.93446,-1.154009 -2.1837,-1.747442 -2.83334,-1.345942 -1.8254,1.128161 -1.36058,3.402275 0.83805,4.100092 2.73694,0.868672 2.50999,1.630462 -1.26238,4.237352 -1.78069,1.230544 -4.41333,3.184773 -5.8503,4.34273 -1.43698,1.157958 -6.51474,3.146895 -11.28392,4.419861 -15.17514,4.050474 -17.67542,7.608304 -6.02502,8.573464 5.45599,0.452 6.07463,0.64703 2.92162,0.92105 -6.51366,0.56609 -8.78945,0.54304 -12.86759,-0.13032 -2.92676,-0.48325 -5.79209,0.0637 -11.7788,2.24863 -10.798369,3.94092 -12.566479,3.86775 -12.056695,-0.49892 z m 20.223785,-10.675841 2.35845,-7.061991 1.45578,2.811991 c 3.93046,7.592059 11.65201,4.689269 15.17013,-5.702954 2.18521,-6.454929 3.63158,-6.38439 3.1612,0.154171 -0.34072,4.736154 1.31196,7.511722 2.48545,4.174156 0.35068,-0.99736 2.01077,-3.275882 3.68911,-5.063382 2.36913,-2.523233 2.67222,-3.25 1.35535,-3.25 -2.50481,0 -2.05951,-1.87733 0.74882,-3.156889 2.39098,-1.089406 4.0968,-3.634658 3.10238,-4.629077 -0.94024,-0.940241 -12.0439,1.796548 -14.41765,3.55361 -1.30365,0.964971 -3.10365,3.737343 -4,6.160827 -1.92377,5.201374 -3.79852,6.239313 -4.71001,2.607658 -1.71089,-6.816746 -8.82599,-6.534351 -14.06138,0.558089 -1.57208,2.129716 -3.64583,4.13509 -4.60833,4.456385 -2.59998,0.867905 -2.141,4.314124 0.75,5.631351 1.375,0.626492 2.5,1.929344 2.5,2.895228 0,0.965888 0.5625,1.983128 1.25,2.260538 0.6875,0.27741 1.28651,0.53991 1.33113,0.58333 0.0446,0.0434 1.14243,-3.098946 2.43957,-6.983041 z m 42.4602,-41.607505 -1.68469,-2.571159 -2.09255,2.09255 c -1.1509,1.150902 -1.89255,2.217549 -1.6481,2.370327 6.38,3.987505 8.73868,3.165077 5.42534,-1.891718 z m -19.46359,0.479695 c 2.66297,-3.189801 2.66297,-3.189801 6.22396,-1.5 6.00005,2.847212 11.69147,0.977383 9.17382,-3.013922 -1.06477,-1.688015 -8.14752,-2.538232 -9.04518,-1.085788 -0.30817,0.498631 -1.75497,0.665818 -3.21511,0.371525 -3.06923,-0.618607 -10.96843,5.292495 -9.73642,7.285928 1.24938,2.021531 3.8776,1.201974 6.59893,-2.057743 z m -3.78164,-7.195381 c 2.44799,-1.661251 4.38729,-2.230237 6.38955,-1.874673 2.01879,0.358502 2.57702,0.190929 1.87478,-0.562784 -1.01975,-1.094494 -12.48905,-3.275153 -13.625,-2.590521 -0.71694,0.4321 -0.8728,5.538461 -0.20337,6.66316 0.72458,1.217361 1.8464,0.887676 5.56404,-1.635182 z M 86.378632,36.85684 c 0.365557,-1.827785 0.148989,-3.721095 -0.517501,-4.524166 -1.673319,-2.016228 -0.254494,-2.832932 2.634643,-1.516553 C 91.324572,32.105007 91.721891,34.155994 89.5,36 88.675,36.684689 88,37.864789 88,38.622445 88,39.3801 87.49375,40 86.875,40 86.146947,40 85.971807,38.890963 86.378632,36.85684 Z M 124.75179,33.158574 C 122.52476,31.814539 120.89974,29 122.35078,29 124.85886,29 129,31.552126 129,33.097825 c 0,2.254184 -0.59954,2.262758 -4.24821,0.06075 z"
         style="fill:#020101;opacity:1" />
    </g>
  </g>
</svg>
