<?xml version="1.0" encoding="UTF-8" standalone="no"?>
<!-- Created with Inkscape (http://www.inkscape.org/) -->

<svg
   xmlns:dc="http://purl.org/dc/elements/1.1/"
   xmlns:cc="http://creativecommons.org/ns#"
   xmlns:rdf="http://www.w3.org/1999/02/22-rdf-syntax-ns#"
   xmlns:svg="http://www.w3.org/2000/svg"
   xmlns="http://www.w3.org/2000/svg"
   xmlns:sodipodi="http://sodipodi.sourceforge.net/DTD/sodipodi-0.dtd"
   xmlns:inkscape="http://www.inkscape.org/namespaces/inkscape"
   width="180.93173mm"
   height="172.57469mm"
   viewBox="0 0 180.93173 172.57469"
   version="1.1"
   id="svg8"
   sodipodi:docname="grand-cube-engrenages.svg"
   inkscape:version="0.92.3 (2405546, 2018-03-11)">
  <defs
     id="defs2">
    <clipPath
       id="presentation_clip_path">
      <rect
         y="0"
         x="0"
         width="6000"
         height="6000"
         id="rect2" />
    </clipPath>
    <clipPath
       id="presentation_clip_path-3"
       clipPathUnits="userSpaceOnUse">
      <rect
         x="0"
         y="0"
         width="6000"
         height="6000"
         id="rect2-6" />
    </clipPath>
  </defs>
  <sodipodi:namedview
     id="base"
     pagecolor="#ffffff"
     bordercolor="#666666"
     borderopacity="1.0"
     inkscape:pageopacity="0.0"
     inkscape:pageshadow="2"
     inkscape:zoom="0.98994949"
     inkscape:cx="233.96589"
     inkscape:cy="315.51351"
     inkscape:document-units="mm"
     inkscape:current-layer="layer1"
     showgrid="false"
     inkscape:window-width="1613"
     inkscape:window-height="995"
     inkscape:window-x="67"
     inkscape:window-y="27"
     inkscape:window-maximized="1"
     fit-margin-top="1"
     fit-margin-left="1"
     fit-margin-right="1"
     fit-margin-bottom="1" />
  <metadata
     id="metadata5">
    <rdf:RDF>
      <cc:Work
         rdf:about="">
        <dc:format>image/svg+xml</dc:format>
        <dc:type
           rdf:resource="http://purl.org/dc/dcmitype/StillImage" />
        <dc:title></dc:title>
      </cc:Work>
    </rdf:RDF>
  </metadata>
  <g
     inkscape:label="Calque 1"
     inkscape:groupmode="layer"
     id="layer1"
     transform="translate(-18.330727,-53.821631)">
    <path
       style="fill:#ff7000;fill-opacity:1;stroke-width:0.10771371"
       d="m 69.382547,55.681931 a 16.15192,16.15192 0 0 0 -1.68574,0.106388 l -0.51198,2.962769 a 13.268881,13.268881 0 0 0 -2.43029,0.655884 l -1.92597,-2.313438 a 16.15192,16.15192 0 0 0 -2.92818,1.689066 l 1.04015,2.827802 a 13.268881,13.268881 0 0 0 -1.78194,1.77454 l -2.82556,-1.040992 a 16.15192,16.15192 0 0 0 -1.69367,2.923172 l 2.3253,1.937814 a 13.268881,13.268881 0 0 0 -0.65129,2.422339 l -2.99011,0.515192 a 16.15192,16.15192 0 0 0 -0.0926,1.691441 16.15192,16.15192 0 0 0 0.10638,1.685716 l 2.96278,0.511996 a 13.268881,13.268881 0 0 0 0.65588,2.430284 l -2.31372,1.925958 a 16.15192,16.15192 0 0 0 1.6892,2.928058 l 2.82781,-1.040159 a 13.268881,13.268881 0 0 0 1.77468,1.782067 l -1.04099,2.82571 a 16.15192,16.15192 0 0 0 2.9233,1.693531 l 1.93768,-2.325289 a 13.268881,13.268881 0 0 0 2.42221,0.651413 l 0.51519,2.989957 a 16.15192,16.15192 0 0 0 1.69145,0.09259 16.15192,16.15192 0 0 0 1.68572,-0.106385 l 0.51198,-2.962624 a 13.268881,13.268881 0 0 0 2.43043,-0.655887 l 1.92582,2.313441 a 16.15192,16.15192 0 0 0 2.92805,-1.688928 l -1.04001,-2.8278 a 13.268881,13.268881 0 0 0 1.78206,-1.774683 l 2.82558,1.040858 a 16.15192,16.15192 0 0 0 1.69366,-2.923317 l -2.3253,-1.937667 a 13.268881,13.268881 0 0 0 0.65143,-2.422202 l 2.98982,-0.51519 a 16.15192,16.15192 0 0 0 0.0928,-1.691442 16.15192,16.15192 0 0 0 -0.10638,-1.685724 l -2.96278,-0.511987 a 13.268881,13.268881 0 0 0 -0.65574,-2.430286 l 2.31344,-1.925823 a 16.15192,16.15192 0 0 0 -1.68906,-2.92833 l -2.82795,1.040154 a 13.268881,13.268881 0 0 0 -1.77454,-1.782068 l 1.04099,-2.825572 a 16.15192,16.15192 0 0 0 -2.92317,-1.693529 l -1.93781,2.325292 a 13.268881,13.268881 0 0 0 -2.42234,-0.651422 l -0.51519,-2.989961 a 16.15192,16.15192 0 0 0 -1.69144,-0.09272 z m 1.3e-4,11.245957 a 4.9058402,4.9058402 0 0 1 4.90588,4.905882 4.9058402,4.9058402 0 0 1 -4.90588,4.905881 4.9058402,4.9058402 0 0 1 -4.90589,-4.905881 4.9058402,4.9058402 0 0 1 4.90589,-4.905882 z"
       id="path4539"
       inkscape:connector-curvature="0" />
    <ellipse
       style="fill:#00ff59;fill-opacity:1;stroke-width:0.26458332"
       id="path4541"
       cy="127.61124"
       cx="102.92456"
       rx="68.173271"
       ry="0" />
    <g
       transform="matrix(0.01802833,0,0,0.01802833,54.144187,91.07659)"
       id="g1077">
      <path
         sodipodi:nodetypes="ccccc"
         inkscape:connector-curvature="0"
         id="path4738-3-56-1-8"
         d="M 4931.9854,1427.169 4065,1748 3044.4723,1361.209 3910.1621,1042.2331 Z"
         inkscape:transform-center-y="-30.383316"
         inkscape:transform-center-x="-51.295855"
         style="fill:#0000f7;fill-opacity:1;stroke-width:290.07592773" />
      <path
         sodipodi:nodetypes="ccccc"
         inkscape:connector-curvature="0"
         id="path4738-3-56-1-7"
         d="M 5684.135,1134.932 4965,1418 3953.0654,1033.7469 4675,756 Z"
         inkscape:transform-center-y="-30.383316"
         inkscape:transform-center-x="-51.295855"
         style="fill:#fd8000;fill-opacity:1;stroke-width:290.07592773" />
      <path
         sodipodi:nodetypes="ccccc"
         inkscape:connector-curvature="0"
         id="path4738-3-56-1-9"
         d="M 4653.691,770.0201 3910.1621,1042.2331 3049.685,721.0465 3775,436 Z"
         inkscape:transform-center-y="-30.383316"
         inkscape:transform-center-x="-51.295855"
         style="fill:#e00000;fill-opacity:1;stroke-width:290.07592773" />
      <path
         sodipodi:nodetypes="ccccc"
         inkscape:connector-curvature="0"
         id="path4738-3-56-1-92"
         d="M 3775,436 3023.8093,716.579 2268.476,429.6764 2995,146 Z"
         inkscape:transform-center-y="-30.383316"
         inkscape:transform-center-x="-51.295855"
         style="fill:#078230;fill-opacity:1;stroke-width:290.07592773" />
      <path
         sodipodi:nodetypes="ccccc"
         inkscape:connector-curvature="0"
         id="path4738-3-56-1-2"
         d="M 3869.3454,1034.214 3011.6722,1353.8107 2148.1976,1042.1695 3023.8093,716.579 Z"
         inkscape:transform-center-y="-30.383316"
         inkscape:transform-center-x="-51.295855"
         style="fill:#f3f300;fill-opacity:1;stroke-width:290.07592773" />
      <path
         sodipodi:nodetypes="ccccc"
         inkscape:connector-curvature="0"
         id="path4738-3-56-1-75"
         d="M 3007.3107,704.539 2109.5512,1024.6889 1367.0563,746.7712 2240,426 Z"
         inkscape:transform-center-y="-30.383316"
         inkscape:transform-center-x="-51.295855"
         style="fill:#ffffff;fill-opacity:1;stroke-width:290.07592773" />
      <path
         sodipodi:nodetypes="ccccc"
         inkscape:connector-curvature="0"
         id="path4738-3-56-1-23"
         d="M 2096.729,1032.9817 1050,1428 297.85986,1141.8096 1340,756 Z"
         inkscape:transform-center-y="-30.383316"
         inkscape:transform-center-x="-51.295855"
         style="fill:#0000f7;fill-opacity:1;stroke-width:290.07592773" />
      <path
         sodipodi:nodetypes="ccccc"
         inkscape:connector-curvature="0"
         id="path4738-3-56-1-0"
         d="M 2973.4009,1361.688 1950,1748 1075.8995,1435.4914 2124.1989,1048.9795 Z"
         inkscape:transform-center-y="-30.383316"
         inkscape:transform-center-x="-51.295855"
         style="fill:#ffffff;fill-opacity:1;stroke-width:290.07592773" />
      <path
         sodipodi:nodetypes="ccccc"
         inkscape:connector-curvature="0"
         id="path4738-3-56-1"
         d="M 4046.3776,1762.4462 3000,2167 1972.3115,1757.9062 3006.5792,1373.7329 Z"
         inkscape:transform-center-y="-30.383316"
         inkscape:transform-center-x="-51.295855"
         style="fill:#e00000;fill-opacity:1;stroke-width:290.0758667" />
      <path
         sodipodi:nodetypes="ccccc"
         inkscape:connector-curvature="0"
         id="path4738-3-1-26"
         d="m 4853.0407,2602.6526 785.3971,-349.997 83.0125,-1063.325 -827.9063,296.6748 z"
         inkscape:transform-center-y="49.931781"
         inkscape:transform-center-x="75.109641"
         style="fill:#f3f300;fill-opacity:1;stroke-width:551.79248047" />
      <path
         sodipodi:nodetypes="ccccc"
         inkscape:connector-curvature="0"
         id="path4738-3-1-6"
         d="m 3019,3422.9948 975.0991,-434.231 24.0689,-1185.0361 -1001.2053,365.9985 z"
         inkscape:transform-center-y="48.773085"
         inkscape:transform-center-x="69.674691"
         style="fill:#ffffff;fill-opacity:1;stroke-width:525.2510376" />
      <path
         sodipodi:nodetypes="ccccc"
         inkscape:connector-curvature="0"
         id="path4738-3-1-06"
         d="m 3987.6479,2996.9293 873.1001,-384.7916 50.4846,-1119.9367 -896.854,306.6854 z"
         inkscape:transform-center-y="49.661076"
         inkscape:transform-center-x="73.629641"
         style="fill:#fd8000;fill-opacity:1;stroke-width:544.84594727" />
      <path
         sodipodi:nodetypes="ccccc"
         inkscape:connector-curvature="0"
         id="path4738-3-1-9"
         d="m 3941.474,4193.0501 849.5722,-416.9108 44.2483,-1115.4495 -883.753,357.6894 z"
         inkscape:transform-center-y="46.971148"
         inkscape:transform-center-x="75.84909"
         style="fill:#078230;fill-opacity:1;stroke-width:537.81164551" />
      <path
         sodipodi:nodetypes="ccccc"
         inkscape:connector-curvature="0"
         id="path4738-3-1-0"
         d="m 4799.0828,3724.0098 754.5589,-400.5366 90.39,-1080.0602 -780.295,344.0687 z"
         inkscape:transform-center-y="47.478058"
         inkscape:transform-center-x="74.955755"
         style="fill:#ffffff;fill-opacity:1;stroke-width:537.51202393" />
      <path
         sodipodi:nodetypes="ccccc"
         inkscape:connector-curvature="0"
         id="path4738-3-1-2"
         d="m 3945.1844,5213.7656 802.6629,-515.4211 42.6119,-936.4541 -866.7857,457.5186 z"
         inkscape:transform-center-y="49.1577"
         inkscape:transform-center-x="75.120662"
         style="fill:#e00000;fill-opacity:1;stroke-width:547.53881836" />
      <path
         sodipodi:nodetypes="ccccc"
         inkscape:connector-curvature="0"
         id="path4738-3-1-3"
         d="m 3033.46,4727.7848 934.9062,-512.4198 23.7926,-1217.9353 -976.9784,428.4026 z"
         inkscape:transform-center-y="47.478058"
         inkscape:transform-center-x="69.674691"
         style="fill:#e00000;fill-opacity:1;stroke-width:518.230896" />
      <path
         sodipodi:nodetypes="ccccc"
         inkscape:connector-curvature="0"
         id="path4738-3-1-7"
         d="m 4770.5111,4675.0553 731.5312,-466.7077 60.8592,-895.5835 -762.346,406.6047 z"
         inkscape:transform-center-y="50.940869"
         inkscape:transform-center-x="75.334496"
         style="fill:#0000f7;fill-opacity:1;stroke-width:558.17358398" />
      <path
         sodipodi:nodetypes="ccccc"
         inkscape:connector-curvature="0"
         id="path4738-3-1"
         d="m 3037.9046,5829.461 911.7125,-615.6176 26.6648,-1003.509 -951.5045,519.627 z"
         inkscape:transform-center-y="48.875763"
         inkscape:transform-center-x="69.674691"
         style="fill:#ffffff;fill-opacity:1;stroke-width:525.80352783" />
      <path
         sodipodi:nodetypes="ccccc"
         inkscape:connector-curvature="0"
         id="path4738-3-3"
         d="m 2980.2887,4732.2951 -940.2457,-500.7357 -31.4317,-1240.1718 984.3393,441.2022 z"
         inkscape:transform-center-y="47.478058"
         inkscape:transform-center-x="-69.674691"
         style="fill:#078230;fill-opacity:1;stroke-width:518.23083496" />
      <path
         sodipodi:nodetypes="ccccc"
         inkscape:connector-curvature="0"
         id="path4738-3-56"
         d="m 2998.612,3458.9426 -978.4645,-445.6936 -26.9276,-1200.963 1016.702,368.0189 z"
         inkscape:transform-center-y="49.25893"
         inkscape:transform-center-x="-70.361351"
         style="fill:#0000f7;fill-opacity:1;stroke-width:530.45513916" />
      <path
         sodipodi:nodetypes="ccccc"
         inkscape:connector-curvature="0"
         id="path4738-3-2"
         d="m 2008.6113,2991.3876 -844.3408,-349.3035 -53.5269,-1146.9866 902.4383,319.0345 z"
         inkscape:transform-center-y="49.996135"
         inkscape:transform-center-x="-73.851563"
         style="fill:#078230;fill-opacity:1;stroke-width:547.50378418" />
      <path
         sodipodi:nodetypes="ccccc"
         inkscape:connector-curvature="0"
         id="path4738-3-9"
         d="M 1169.5127,2603.8321 355.84304,2251.515 278.5228,1212.0955 l 842.4529,273.2051 z"
         inkscape:transform-center-y="49.574271"
         inkscape:transform-center-x="-74.0565"
         style="fill:#f3f300;fill-opacity:1;stroke-width:545.94512939" />
      <path
         sodipodi:nodetypes="ccccc"
         inkscape:connector-curvature="0"
         id="path4738-3-5"
         d="m 2026.4472,4161.8752 -802.5395,-388.861 -54.395,-1108.3084 850.6348,348.5432 z"
         inkscape:transform-center-y="45.148667"
         inkscape:transform-center-x="-73.887"
         style="fill:#e00000;fill-opacity:1;stroke-width:520.41021729" />
      <path
         sodipodi:nodetypes="ccccc"
         inkscape:connector-curvature="0"
         id="path4738-3"
         d="m 2056.2926,5228.4297 -793.1706,-505.7114 -38.0308,-982.9708 818.133,450.1121 z"
         inkscape:transform-center-y="51.943877"
         inkscape:transform-center-x="-76.520796"
         style="fill:#f3f300;fill-opacity:1;stroke-width:568.06237793" />
      <path
         sodipodi:nodetypes="ccccc"
         inkscape:connector-curvature="0"
         id="path4738-3-7"
         d="M 1237.1796,3710.8931 437.6156,3305.8978 357.65258,2244.8315 1179.0435,2581.613 Z"
         inkscape:transform-center-y="46.659332"
         inkscape:transform-center-x="-73.381955"
         style="fill:#fd8000;fill-opacity:1;stroke-width:527.23364258" />
      <path
         sodipodi:nodetypes="ccccc"
         inkscape:connector-curvature="0"
         id="path4738-3-6"
         d="M 1257.52,4700.0421 504.58435,4210.0333 437.6156,3305.8978 1209.3885,3715.8586 Z"
         inkscape:transform-center-y="50.687288"
         inkscape:transform-center-x="-73.437865"
         style="fill:#078230;fill-opacity:1;stroke-width:549.72912598" />
      <path
         sodipodi:nodetypes="ccccc"
         inkscape:connector-curvature="0"
         id="path4738"
         d="m 2976.3478,5842.591 -901.4571,-615.3326 -13.7225,-1007.7108 932.4159,519.1118 z"
         inkscape:transform-center-y="65.81671"
         inkscape:transform-center-x="-104.08284"
         style="fill:#fd8000;fill-opacity:1;stroke-width:745.75598145" />
      <g
         transform="matrix(1,0,0,-1,0,6002)"
         id="g208"
         class="SlideGroup">
        <g
           id="g206">
          <g
             id="container-id1">
            <g
               clip-path="url(#presentation_clip_path-3)"
               class="Slide"
               id="id1">
              <g
                 id="g202"
                 class="Page">
                <g
                   id="g200"
                   class="Group">
                  <g
                     id="g58"
                     class="com.sun.star.drawing.LineShape">
                    <g
                       id="id3">
                      <rect
                         style="fill:none;stroke:none"
                         id="rect53"
                         height="3707"
                         width="107"
                         y="142"
                         x="2947"
                         class="BoundingBox" />
                      <path
                         style="fill:none;stroke:#000000;stroke-width:106;stroke-linecap:round;stroke-linejoin:miter"
                         inkscape:connector-curvature="0"
                         id="path55"
                         d="M 3000,3795 V 195" />
                    </g>
                  </g>
                  <g
                     id="g65"
                     class="com.sun.star.drawing.LineShape">
                    <g
                       id="id4">
                      <rect
                         style="fill:none;stroke:none"
                         id="rect60"
                         height="1705"
                         width="2555"
                         y="118"
                         x="473"
                         class="BoundingBox" />
                      <path
                         style="fill:none;stroke:#000000;stroke-width:53;stroke-linecap:round;stroke-linejoin:miter"
                         inkscape:connector-curvature="0"
                         id="path62"
                         d="M 500,1795 3000,145" />
                    </g>
                  </g>
                  <g
                     id="g72"
                     class="com.sun.star.drawing.LineShape">
                    <g
                       id="id5">
                      <rect
                         style="fill:none;stroke:none"
                         id="rect67"
                         height="3115"
                         width="285"
                         y="1768"
                         x="243"
                         class="BoundingBox" />
                      <path
                         style="fill:none;stroke:#000000;stroke-width:53;stroke-linecap:round;stroke-linejoin:miter"
                         inkscape:connector-curvature="0"
                         id="path69"
                         d="M 270,4855 500,1795" />
                    </g>
                  </g>
                  <g
                     id="g79"
                     class="com.sun.star.drawing.LineShape">
                    <g
                       id="id6">
                      <rect
                         style="fill:none;stroke:none"
                         id="rect74"
                         height="1047"
                         width="2780"
                         y="4837"
                         x="243"
                         class="BoundingBox" />
                      <path
                         style="fill:none;stroke:#000000;stroke-width:53;stroke-linecap:round;stroke-linejoin:miter"
                         inkscape:connector-curvature="0"
                         id="path76"
                         d="M 2995,5856 270,4864" />
                    </g>
                  </g>
                  <g
                     id="g86"
                     class="com.sun.star.drawing.LineShape">
                    <g
                       id="id7">
                      <rect
                         style="fill:none;stroke:none"
                         id="rect81"
                         height="1047"
                         width="2780"
                         y="4837"
                         x="2973"
                         class="BoundingBox" />
                      <path
                         style="fill:none;stroke:#000000;stroke-width:53;stroke-linecap:round;stroke-linejoin:miter"
                         inkscape:connector-curvature="0"
                         id="path83"
                         d="M 3000,5856 5725,4864" />
                    </g>
                  </g>
                  <g
                     id="g93"
                     class="com.sun.star.drawing.LineShape">
                    <g
                       id="id8">
                      <rect
                         style="fill:none;stroke:none"
                         id="rect88"
                         height="1099"
                         width="2807"
                         y="3782"
                         x="247"
                         class="BoundingBox" />
                      <path
                         style="fill:none;stroke:#000000;stroke-width:106;stroke-linecap:round;stroke-linejoin:miter"
                         inkscape:connector-curvature="0"
                         id="path90"
                         d="M 300,4827 3000,3835" />
                    </g>
                  </g>
                  <g
                     id="g100"
                     class="com.sun.star.drawing.LineShape">
                    <g
                       id="id9">
                      <rect
                         style="fill:none;stroke:none"
                         id="rect95"
                         height="1047"
                         width="2780"
                         y="4227"
                         x="1313"
                         class="BoundingBox" />
                      <path
                         style="fill:none;stroke:#000000;stroke-width:53;stroke-linecap:round;stroke-linejoin:miter"
                         inkscape:connector-curvature="0"
                         id="path97"
                         d="M 4065,4254 1340,5246" />
                    </g>
                  </g>
                  <g
                     id="g107"
                     class="com.sun.star.drawing.LineShape">
                    <g
                       id="id10">
                      <rect
                         style="fill:none;stroke:none"
                         id="rect102"
                         height="1047"
                         width="2780"
                         y="4227"
                         x="1923"
                         class="BoundingBox" />
                      <path
                         style="fill:none;stroke:#000000;stroke-width:53;stroke-linecap:round;stroke-linejoin:miter"
                         inkscape:connector-curvature="0"
                         id="path104"
                         d="m 1950,4254 2725,992" />
                    </g>
                  </g>
                  <g
                     id="g114"
                     class="com.sun.star.drawing.LineShape">
                    <g
                       id="id11">
                      <rect
                         style="fill:none;stroke:none"
                         id="rect109"
                         height="1047"
                         width="2780"
                         y="4557"
                         x="2213"
                         class="BoundingBox" />
                      <path
                         style="fill:none;stroke:#000000;stroke-width:53;stroke-linecap:round;stroke-linejoin:miter"
                         inkscape:connector-curvature="0"
                         id="path111"
                         d="M 4965,4584 2240,5576" />
                    </g>
                  </g>
                  <g
                     id="g121"
                     class="com.sun.star.drawing.LineShape">
                    <g
                       id="id12">
                      <rect
                         style="fill:none;stroke:none"
                         id="rect116"
                         height="1047"
                         width="2780"
                         y="4547"
                         x="1023"
                         class="BoundingBox" />
                      <path
                         style="fill:none;stroke:#000000;stroke-width:53;stroke-linecap:round;stroke-linejoin:miter"
                         inkscape:connector-curvature="0"
                         id="path118"
                         d="m 1050,4574 2725,992" />
                    </g>
                  </g>
                  <g
                     id="g128"
                     class="com.sun.star.drawing.LineShape">
                    <g
                       id="id13">
                      <rect
                         style="fill:none;stroke:none"
                         id="rect123"
                         height="1705"
                         width="2555"
                         y="118"
                         x="2973"
                         class="BoundingBox" />
                      <path
                         style="fill:none;stroke:#000000;stroke-width:53;stroke-linecap:round;stroke-linejoin:miter"
                         inkscape:connector-curvature="0"
                         id="path125"
                         d="M 5500,1795 3000,145" />
                    </g>
                  </g>
                  <g
                     id="g135"
                     class="com.sun.star.drawing.LineShape">
                    <g
                       id="id14">
                      <rect
                         style="fill:none;stroke:none"
                         id="rect130"
                         height="3115"
                         width="285"
                         y="1768"
                         x="5473"
                         class="BoundingBox" />
                      <path
                         style="fill:none;stroke:#000000;stroke-width:53;stroke-linecap:round;stroke-linejoin:miter"
                         inkscape:connector-curvature="0"
                         id="path132"
                         d="M 5730,4855 5500,1795" />
                    </g>
                  </g>
                  <g
                     id="g142"
                     class="com.sun.star.drawing.LineShape">
                    <g
                       id="id15">
                      <rect
                         style="fill:none;stroke:none"
                         id="rect137"
                         height="1099"
                         width="2807"
                         y="3782"
                         x="2947"
                         class="BoundingBox" />
                      <path
                         style="fill:none;stroke:#000000;stroke-width:106;stroke-linecap:round;stroke-linejoin:miter"
                         inkscape:connector-curvature="0"
                         id="path139"
                         d="M 5700,4827 3000,3835" />
                    </g>
                  </g>
                  <g
                     transform="translate(8.4831073,-47.941472)"
                     id="g149"
                     class="com.sun.star.drawing.CustomShape">
                    <g
                       id="id16">
                      <rect
                         style="fill:none;stroke:none"
                         id="rect144"
                         height="3304"
                         width="248"
                         y="1293"
                         x="1039"
                         class="BoundingBox" />
                      <path
                         style="fill:#000000;stroke:none"
                         inkscape:connector-curvature="0"
                         id="path146"
                         d="m 1181,1363 -141,3228 104,-66 141,-3227 z m 3,-70 z m -43,3303 z" />
                    </g>
                  </g>
                  <g
                     transform="translate(1.4773651,-20.244992)"
                     id="g156"
                     class="com.sun.star.drawing.CustomShape">
                    <g
                       id="id17">
                      <rect
                         style="fill:none;stroke:none"
                         id="rect151"
                         height="3304"
                         width="248"
                         y="1292"
                         x="4740"
                         class="BoundingBox" />
                      <path
                         style="fill:#000000;stroke:none"
                         inkscape:connector-curvature="0"
                         id="path153"
                         d="m 4882,4525 -141,-3228 104,66 141,3227 z m 3,70 z m -43,-3303 z" />
                    </g>
                  </g>
                  <g
                     transform="translate(10.748698,-21.497396)"
                     id="g163"
                     class="com.sun.star.drawing.CustomShape">
                    <g
                       id="id18">
                      <rect
                         style="fill:none;stroke:none"
                         id="rect158"
                         height="3504"
                         width="164"
                         y="744"
                         x="1919"
                         class="BoundingBox" />
                      <path
                         style="fill:#000000;stroke:none"
                         inkscape:connector-curvature="0"
                         id="path160"
                         d="m 1979,818 -60,3427 103,-73 60,-3426 z m 2,-74 z m 39,3503 z" />
                    </g>
                  </g>
                  <g
                     transform="translate(9.1395556,-3.0579918)"
                     id="g170"
                     class="com.sun.star.drawing.CustomShape">
                    <g
                       id="id19">
                      <rect
                         style="fill:none;stroke:none"
                         id="rect165"
                         height="3504"
                         width="164"
                         y="743"
                         x="3920"
                         class="BoundingBox" />
                      <path
                         style="fill:#000000;stroke:none"
                         inkscape:connector-curvature="0"
                         id="path167"
                         d="m 3980,4172 -60,-3427 103,73 60,3426 z m 2,74 z m 39,-3503 z" />
                    </g>
                  </g>
                  <g
                     transform="translate(0,-52.916667)"
                     id="g177"
                     class="com.sun.star.drawing.CustomShape">
                    <g
                       id="id20">
                      <rect
                         style="fill:none;stroke:none"
                         id="rect172"
                         height="1320"
                         width="2717"
                         y="2511"
                         x="342"
                         class="BoundingBox" />
                      <path
                         style="fill:#000000;stroke:none"
                         inkscape:connector-curvature="0"
                         id="path174"
                         d="M 380,3719 3030,2511 3019,2622 369,3829 Z m -37,17 z M 3057,2604 Z" />
                    </g>
                  </g>
                  <g
                     transform="translate(0,52.916667)"
                     id="g184"
                     class="com.sun.star.drawing.CustomShape">
                    <g
                       id="id21">
                      <rect
                         style="fill:none;stroke:none"
                         id="rect179"
                         height="1531"
                         width="2625"
                         y="1193"
                         x="399"
                         class="BoundingBox" />
                      <path
                         style="fill:#000000;stroke:none"
                         inkscape:connector-curvature="0"
                         id="path181"
                         d="m 433,2613 2560,-1419 -5,110 -2559,1418 z m -34,18 z M 3023,1285 Z" />
                    </g>
                  </g>
                  <g
                     transform="translate(0,52.916667)"
                     id="g191"
                     class="com.sun.star.drawing.CustomShape">
                    <g
                       id="id22">
                      <rect
                         style="fill:none;stroke:none"
                         id="rect186"
                         height="1531"
                         width="2627"
                         y="1193"
                         x="2988"
                         class="BoundingBox" />
                      <path
                         style="fill:#000000;stroke:none"
                         inkscape:connector-curvature="0"
                         id="path188"
                         d="m 5579,2613 -2560,-1419 5,110 2559,1418 z m 34,19 z M 2989,1284 Z" />
                    </g>
                  </g>
                  <g
                     transform="translate(0,-52.916667)"
                     id="g198"
                     class="com.sun.star.drawing.CustomShape">
                    <g
                       id="id23">
                      <rect
                         style="fill:none;stroke:none"
                         id="rect193"
                         height="1320"
                         width="2717"
                         y="2512"
                         x="2952"
                         class="BoundingBox" />
                      <path
                         style="fill:#000000;stroke:none"
                         inkscape:connector-curvature="0"
                         id="path195"
                         d="m 5630,3720 -2650,-1208 11,111 2650,1207 z m 37,17 z M 2953,2605 Z" />
                    </g>
                  </g>
                </g>
              </g>
            </g>
          </g>
        </g>
      </g>
    </g>
    <path
       style="fill:#078230;fill-opacity:1;stroke-width:0.10771371"
       d="m 140.35117,58.652147 a 16.15192,16.15192 0 0 0 -1.68574,0.106388 l -0.51198,2.962769 a 13.268881,13.268881 0 0 0 -2.43028,0.655884 L 133.7972,60.06375 a 16.15192,16.15192 0 0 0 -2.92818,1.689066 l 1.04015,2.827802 a 13.268881,13.268881 0 0 0 -1.78194,1.77454 l -2.82556,-1.040992 a 16.15192,16.15192 0 0 0 -1.69367,2.923172 l 2.3253,1.937814 a 13.268881,13.268881 0 0 0 -0.65129,2.422339 l -2.99011,0.515192 a 16.15192,16.15192 0 0 0 -0.0926,1.691441 16.15192,16.15192 0 0 0 0.10638,1.685716 l 2.96278,0.511996 a 13.268881,13.268881 0 0 0 0.65588,2.430284 l -2.31372,1.925958 a 16.15192,16.15192 0 0 0 1.6892,2.928058 l 2.82781,-1.040159 a 13.268881,13.268881 0 0 0 1.77468,1.782067 l -1.04099,2.82571 a 16.15192,16.15192 0 0 0 2.9233,1.693532 l 1.93768,-2.32529 a 13.268881,13.268881 0 0 0 2.4222,0.651414 l 0.51519,2.989955 a 16.15192,16.15192 0 0 0 1.69145,0.0926 16.15192,16.15192 0 0 0 1.68572,-0.10639 l 0.51198,-2.96262 a 13.268881,13.268881 0 0 0 2.43043,-0.655886 l 1.92582,2.31344 a 16.15192,16.15192 0 0 0 2.92805,-1.688928 l -1.04001,-2.827799 a 13.268881,13.268881 0 0 0 1.78206,-1.774683 l 2.82558,1.040858 a 16.15192,16.15192 0 0 0 1.69366,-2.923317 l -2.3253,-1.937667 a 13.268881,13.268881 0 0 0 0.65143,-2.422202 l 2.98982,-0.51519 a 16.15192,16.15192 0 0 0 0.0928,-1.691442 16.15192,16.15192 0 0 0 -0.10638,-1.685724 l -2.96278,-0.511987 a 13.268881,13.268881 0 0 0 -0.65574,-2.430286 l 2.31344,-1.925823 a 16.15192,16.15192 0 0 0 -1.68906,-2.92833 l -2.82795,1.040154 a 13.268881,13.268881 0 0 0 -1.77454,-1.782068 l 1.04099,-2.825572 a 16.15192,16.15192 0 0 0 -2.92317,-1.693529 l -1.93781,2.325292 a 13.268881,13.268881 0 0 0 -2.42234,-0.651421 l -0.51519,-2.989961 a 16.15192,16.15192 0 0 0 -1.69144,-0.09272 z m 1.3e-4,11.245957 a 4.9058401,4.9058401 0 0 1 4.90588,4.905882 4.9058401,4.9058401 0 0 1 -4.90588,4.905881 4.9058401,4.9058401 0 0 1 -4.90588,-4.905881 4.9058401,4.9058401 0 0 1 4.90588,-4.905882 z"
       id="path4539-7"
       inkscape:connector-curvature="0" />
    <path
       style="fill:#fed000;fill-opacity:1;stroke-width:0.10771371"
       d="m 182.11045,120.57883 a 16.15192,16.15192 0 0 0 -1.68574,0.10639 l -0.51198,2.96277 a 13.268881,13.268881 0 0 0 -2.43029,0.65589 l -1.92597,-2.31344 a 16.15192,16.15192 0 0 0 -2.92818,1.68906 l 1.04015,2.82781 a 13.268881,13.268881 0 0 0 -1.78194,1.77454 l -2.82556,-1.041 a 16.15192,16.15192 0 0 0 -1.69367,2.92318 l 2.3253,1.93781 a 13.268881,13.268881 0 0 0 -0.65129,2.42234 l -2.99011,0.51519 a 16.15192,16.15192 0 0 0 -0.0926,1.69144 16.15192,16.15192 0 0 0 0.10638,1.68572 l 2.96278,0.51199 a 13.268881,13.268881 0 0 0 0.65588,2.43029 l -2.31372,1.92596 a 16.15192,16.15192 0 0 0 1.6892,2.92805 l 2.82781,-1.04016 a 13.268881,13.268881 0 0 0 1.77468,1.78207 l -1.04099,2.82571 a 16.15192,16.15192 0 0 0 2.9233,1.69353 l 1.93768,-2.32529 a 13.268881,13.268881 0 0 0 2.42221,0.65142 l 0.51519,2.98995 a 16.15192,16.15192 0 0 0 1.69145,0.0926 16.15192,16.15192 0 0 0 1.68572,-0.10638 l 0.51198,-2.96263 a 13.268881,13.268881 0 0 0 2.43043,-0.65588 l 1.92582,2.31344 a 16.15192,16.15192 0 0 0 2.92805,-1.68893 l -1.04001,-2.8278 a 13.268881,13.268881 0 0 0 1.78206,-1.77468 l 2.82558,1.04085 a 16.15192,16.15192 0 0 0 1.69366,-2.92331 l -2.3253,-1.93767 a 13.268881,13.268881 0 0 0 0.65143,-2.4222 l 2.98982,-0.51519 a 16.15192,16.15192 0 0 0 0.0928,-1.69144 16.15192,16.15192 0 0 0 -0.10638,-1.68573 l -2.96278,-0.51198 a 13.268881,13.268881 0 0 0 -0.65574,-2.43029 l 2.31344,-1.92582 a 16.15192,16.15192 0 0 0 -1.68906,-2.92833 l -2.82795,1.04015 a 13.268881,13.268881 0 0 0 -1.77454,-1.78207 l 1.04099,-2.82557 a 16.15192,16.15192 0 0 0 -2.92317,-1.69353 l -1.93781,2.32529 a 13.268881,13.268881 0 0 0 -2.42234,-0.65142 l -0.51519,-2.98996 a 16.15192,16.15192 0 0 0 -1.69144,-0.0927 z m 1.3e-4,11.24596 a 4.9058401,4.9058401 0 0 1 4.90588,4.90588 4.9058401,4.9058401 0 0 1 -4.90588,4.90588 4.9058401,4.9058401 0 0 1 -4.90589,-4.90588 4.9058401,4.9058401 0 0 1 4.90589,-4.90588 z"
       id="path4539-5"
       inkscape:connector-curvature="0" />
    <path
       style="fill:#000000;fill-opacity:1;stroke-width:0.10771371"
       d="m 148.92274,192.94299 a 16.15192,16.15192 0 0 0 -1.68574,0.10639 l -0.51198,2.96277 a 13.268881,13.268881 0 0 0 -2.43028,0.65588 l -1.92597,-2.31343 a 16.15192,16.15192 0 0 0 -2.92818,1.68906 l 1.04015,2.8278 a 13.268881,13.268881 0 0 0 -1.78194,1.77454 l -2.82556,-1.04099 a 16.15192,16.15192 0 0 0 -1.69367,2.92317 l 2.3253,1.93782 a 13.268881,13.268881 0 0 0 -0.65129,2.42234 l -2.99011,0.51519 a 16.15192,16.15192 0 0 0 -0.0926,1.69144 16.15192,16.15192 0 0 0 0.10638,1.68572 l 2.96278,0.51199 a 13.268881,13.268881 0 0 0 0.65588,2.43029 l -2.31372,1.92595 a 16.15192,16.15192 0 0 0 1.6892,2.92806 l 2.82781,-1.04016 a 13.268881,13.268881 0 0 0 1.77468,1.78207 l -1.04099,2.82571 a 16.15192,16.15192 0 0 0 2.9233,1.69353 l 1.93768,-2.32529 a 13.268881,13.268881 0 0 0 2.4222,0.65142 l 0.51519,2.98995 a 16.15192,16.15192 0 0 0 1.69145,0.0926 16.15192,16.15192 0 0 0 1.68572,-0.10638 l 0.51198,-2.96263 a 13.268881,13.268881 0 0 0 2.43043,-0.65588 l 1.92582,2.31344 a 16.15192,16.15192 0 0 0 2.92805,-1.68893 l -1.04001,-2.8278 a 13.268881,13.268881 0 0 0 1.78206,-1.77468 l 2.82558,1.04085 a 16.15192,16.15192 0 0 0 1.69366,-2.92331 l -2.3253,-1.93767 a 13.268881,13.268881 0 0 0 0.65143,-2.4222 l 2.98982,-0.51519 a 16.15192,16.15192 0 0 0 0.0928,-1.69144 16.15192,16.15192 0 0 0 -0.10638,-1.68573 l -2.96278,-0.51199 a 13.268881,13.268881 0 0 0 -0.65574,-2.43028 l 2.31344,-1.92582 a 16.15192,16.15192 0 0 0 -1.68906,-2.92833 l -2.82795,1.04015 a 13.268881,13.268881 0 0 0 -1.77454,-1.78207 l 1.04099,-2.82557 a 16.15192,16.15192 0 0 0 -2.92317,-1.69353 l -1.93781,2.32529 a 13.268881,13.268881 0 0 0 -2.42234,-0.65142 l -0.51519,-2.98996 a 16.15192,16.15192 0 0 0 -1.69144,-0.0927 z m 1.3e-4,11.24596 a 4.9058401,4.9058401 0 0 1 4.90588,4.90588 4.9058401,4.9058401 0 0 1 -4.90588,4.90588 4.9058401,4.9058401 0 0 1 -4.90588,-4.90588 4.9058401,4.9058401 0 0 1 4.90588,-4.90588 z"
       id="path4539-3"
       inkscape:connector-curvature="0" />
    <path
       style="fill:#e00000;fill-opacity:1;stroke-width:0.10771371"
       d="m 70.016287,189.20163 a 16.15192,16.15192 0 0 0 -1.68574,0.10639 l -0.51198,2.96277 a 13.268881,13.268881 0 0 0 -2.43028,0.65588 l -1.92597,-2.31343 a 16.15192,16.15192 0 0 0 -2.92818,1.68906 l 1.04015,2.82781 a 13.268881,13.268881 0 0 0 -1.78194,1.77454 l -2.82556,-1.041 a 16.15192,16.15192 0 0 0 -1.69367,2.92318 l 2.3253,1.93781 a 13.268881,13.268881 0 0 0 -0.65129,2.42234 l -2.99011,0.51519 a 16.15192,16.15192 0 0 0 -0.0926,1.69144 16.15192,16.15192 0 0 0 0.10638,1.68572 l 2.96278,0.51199 a 13.268881,13.268881 0 0 0 0.65588,2.43029 l -2.31372,1.92595 a 16.15192,16.15192 0 0 0 1.6892,2.92806 l 2.82781,-1.04016 a 13.268881,13.268881 0 0 0 1.77468,1.78207 l -1.04099,2.82571 a 16.15192,16.15192 0 0 0 2.9233,1.69353 l 1.93768,-2.32529 a 13.268881,13.268881 0 0 0 2.4222,0.65142 l 0.51519,2.98995 a 16.15192,16.15192 0 0 0 1.69145,0.0926 16.15192,16.15192 0 0 0 1.68572,-0.10638 l 0.51198,-2.96263 a 13.268881,13.268881 0 0 0 2.43043,-0.65588 l 1.92582,2.31344 a 16.15192,16.15192 0 0 0 2.92805,-1.68893 l -1.04001,-2.8278 a 13.268881,13.268881 0 0 0 1.78206,-1.77468 l 2.82558,1.04085 a 16.15192,16.15192 0 0 0 1.69366,-2.92331 l -2.3253,-1.93767 a 13.268881,13.268881 0 0 0 0.65143,-2.4222 l 2.98982,-0.51519 a 16.15192,16.15192 0 0 0 0.0928,-1.69144 16.15192,16.15192 0 0 0 -0.10638,-1.68573 l -2.96278,-0.51199 a 13.268881,13.268881 0 0 0 -0.65573,-2.43028 l 2.31344,-1.92582 a 16.15192,16.15192 0 0 0 -1.68907,-2.92833 l -2.82795,1.04015 a 13.268881,13.268881 0 0 0 -1.77454,-1.78207 l 1.04099,-2.82557 a 16.15192,16.15192 0 0 0 -2.92317,-1.69353 l -1.93781,2.32529 a 13.268881,13.268881 0 0 0 -2.42234,-0.65142 l -0.51519,-2.98996 a 16.15192,16.15192 0 0 0 -1.69144,-0.0927 z m 1.3e-4,11.24596 a 4.9058401,4.9058401 0 0 1 4.90588,4.90588 4.9058401,4.9058401 0 0 1 -4.90588,4.90588 4.9058401,4.9058401 0 0 1 -4.90588,-4.90588 4.9058401,4.9058401 0 0 1 4.90588,-4.90588 z"
       id="path4539-56"
       inkscape:connector-curvature="0" />
    <path
       style="fill:#0000ff;fill-opacity:1;stroke-width:0.10771371"
       d="m 35.482597,119.21617 a 16.15192,16.15192 0 0 0 -1.68574,0.10638 l -0.51198,2.96277 a 13.268881,13.268881 0 0 0 -2.43028,0.65589 l -1.92597,-2.31344 a 16.15192,16.15192 0 0 0 -2.92818,1.68906 l 1.04015,2.82781 a 13.268881,13.268881 0 0 0 -1.78194,1.77454 l -2.82556,-1.041 a 16.15192,16.15192 0 0 0 -1.69367,2.92318 l 2.3253,1.93781 a 13.268881,13.268881 0 0 0 -0.65129,2.42234 l -2.99011,0.51519 a 16.15192,16.15192 0 0 0 -0.0926,1.69144 16.15192,16.15192 0 0 0 0.10638,1.68572 l 2.96278,0.51199 a 13.268881,13.268881 0 0 0 0.65588,2.43029 l -2.31372,1.92596 a 16.15192,16.15192 0 0 0 1.6892,2.92805 l 2.82781,-1.04015 a 13.268881,13.268881 0 0 0 1.77468,1.78206 l -1.04099,2.82571 a 16.15192,16.15192 0 0 0 2.9233,1.69353 l 1.93768,-2.32529 a 13.268881,13.268881 0 0 0 2.4222,0.65142 l 0.51519,2.98995 a 16.15192,16.15192 0 0 0 1.69145,0.0926 16.15192,16.15192 0 0 0 1.68572,-0.10638 l 0.51198,-2.96263 a 13.268881,13.268881 0 0 0 2.43043,-0.65588 l 1.92582,2.31344 a 16.15192,16.15192 0 0 0 2.92805,-1.68893 l -1.04001,-2.8278 a 13.268881,13.268881 0 0 0 1.78206,-1.77468 l 2.82558,1.04086 a 16.15192,16.15192 0 0 0 1.69366,-2.92332 l -2.3253,-1.93767 a 13.268881,13.268881 0 0 0 0.65143,-2.4222 l 2.98982,-0.51519 a 16.15192,16.15192 0 0 0 0.0928,-1.69144 16.15192,16.15192 0 0 0 -0.10638,-1.68573 l -2.96278,-0.51198 a 13.268881,13.268881 0 0 0 -0.65573,-2.43029 l 2.31344,-1.92582 a 16.15192,16.15192 0 0 0 -1.68907,-2.92833 l -2.82795,1.04015 a 13.268881,13.268881 0 0 0 -1.77454,-1.78207 l 1.04099,-2.82557 a 16.15192,16.15192 0 0 0 -2.92317,-1.69353 l -1.93781,2.32529 a 13.268881,13.268881 0 0 0 -2.42234,-0.65142 l -0.51519,-2.98996 a 16.15192,16.15192 0 0 0 -1.69144,-0.0927 z m 1.3e-4,11.24595 a 4.9058401,4.9058401 0 0 1 4.90588,4.90588 4.9058401,4.9058401 0 0 1 -4.90588,4.90589 4.9058401,4.9058401 0 0 1 -4.90588,-4.90589 4.9058401,4.9058401 0 0 1 4.90588,-4.90588 z"
       id="path4539-2"
       inkscape:connector-curvature="0" />
    <text
       xml:space="preserve"
       style="font-style:normal;font-weight:normal;font-size:13.10741138px;line-height:1.25;font-family:sans-serif;letter-spacing:0px;word-spacing:0px;fill:#000000;fill-opacity:1;stroke:none;stroke-width:0.32768527"
       x="99.632423"
       y="72.168854"
       id="text1226"><tspan
         sodipodi:role="line"
         id="tspan1224"
         x="99.632423"
         y="72.168854"
         style="font-style:normal;font-variant:normal;font-weight:500;font-stretch:normal;font-size:24.46716881px;line-height:1.25;font-family:Ubuntu;-inkscape-font-specification:'Ubuntu Medium';fill:#000000;fill-opacity:1;stroke-width:0.32768527">?</tspan></text>
    <text
       xml:space="preserve"
       style="font-style:normal;font-weight:normal;font-size:13.10741138px;line-height:1.25;font-family:sans-serif;letter-spacing:0px;word-spacing:0px;fill:#ff0000;fill-opacity:1;stroke:none;stroke-width:0.32768527"
       x="192.71725"
       y="-4.5272055"
       id="text1226-2"
       transform="rotate(30)"><tspan
         sodipodi:role="line"
         id="tspan1224-5"
         x="192.71725"
         y="-4.5272055"
         style="font-style:normal;font-variant:normal;font-weight:500;font-stretch:normal;font-size:24.46716881px;line-height:1.25;font-family:Ubuntu;-inkscape-font-specification:'Ubuntu Medium';fill:#ff0000;fill-opacity:1;stroke-width:0.32768527">?</tspan></text>
    <text
       xml:space="preserve"
       style="font-style:normal;font-weight:normal;font-size:13.10741138px;line-height:1.25;font-family:sans-serif;letter-spacing:0px;word-spacing:0px;fill:#0000ff;fill-opacity:1;stroke:none;stroke-width:0.32768527"
       x="62.95623"
       y="-238.81052"
       id="text1226-7"
       transform="rotate(120)"><tspan
         sodipodi:role="line"
         id="tspan1224-2"
         x="62.95623"
         y="-238.81052"
         style="font-style:normal;font-variant:normal;font-weight:500;font-stretch:normal;font-size:24.46716881px;line-height:1.25;font-family:Ubuntu;-inkscape-font-specification:'Ubuntu Medium';fill:#0000ff;fill-opacity:1;stroke-width:0.32768527">?</tspan></text>
    <text
       xml:space="preserve"
       style="font-style:normal;font-weight:normal;font-size:13.10741138px;line-height:1.25;font-family:sans-serif;letter-spacing:0px;word-spacing:0px;fill:#ff7000;fill-opacity:1;stroke:none;stroke-width:0.32768527"
       x="-109.88636"
       y="-208.0491"
       id="text1226-74"
       transform="scale(-1)"><tspan
         sodipodi:role="line"
         id="tspan1224-4"
         x="-109.88636"
         y="-208.0491"
         style="font-style:normal;font-variant:normal;font-weight:500;font-stretch:normal;font-size:24.46716881px;line-height:1.25;font-family:Ubuntu;-inkscape-font-specification:'Ubuntu Medium';fill:#ff7000;fill-opacity:1;stroke-width:0.32768527">?</tspan></text>
    <text
       xml:space="preserve"
       style="font-style:normal;font-weight:normal;font-size:13.10741138px;line-height:1.25;font-family:sans-serif;letter-spacing:0px;word-spacing:0px;fill:#078230;fill-opacity:1;stroke:none;stroke-width:0.32768527"
       x="-183.91199"
       y="-44.805599"
       id="text1226-0"
       transform="rotate(-120)"><tspan
         sodipodi:role="line"
         id="tspan1224-56"
         x="-183.91199"
         y="-44.805599"
         style="font-style:normal;font-variant:normal;font-weight:500;font-stretch:normal;font-size:24.46716881px;line-height:1.25;font-family:Ubuntu;-inkscape-font-specification:'Ubuntu Medium';fill:#078230;fill-opacity:1;stroke-width:0.32768527">?</tspan></text>
    <text
       xml:space="preserve"
       style="font-style:normal;font-weight:normal;font-size:13.10741138px;line-height:1.25;font-family:sans-serif;letter-spacing:0px;word-spacing:0px;fill:#fed000;fill-opacity:1;stroke:none;stroke-width:0.32768527"
       x="-16.14645"
       y="110.10325"
       id="text1226-00"
       transform="rotate(-30)"><tspan
         sodipodi:role="line"
         id="tspan1224-40"
         x="-16.14645"
         y="110.10325"
         style="font-style:normal;font-variant:normal;font-weight:500;font-stretch:normal;font-size:24.46716881px;line-height:1.25;font-family:Ubuntu;-inkscape-font-specification:'Ubuntu Medium';fill:#fed000;fill-opacity:1;stroke-width:0.32768527">?</tspan></text>
  </g>
</svg>
