<?xml version="1.0" encoding="UTF-8" standalone="no"?>
<svg
   xmlns:ooo="http://xml.openoffice.org/svg/export"
   xmlns:dc="http://purl.org/dc/elements/1.1/"
   xmlns:cc="http://creativecommons.org/ns#"
   xmlns:rdf="http://www.w3.org/1999/02/22-rdf-syntax-ns#"
   xmlns:svg="http://www.w3.org/2000/svg"
   xmlns="http://www.w3.org/2000/svg"
   xmlns:sodipodi="http://sodipodi.sourceforge.net/DTD/sodipodi-0.dtd"
   xmlns:inkscape="http://www.inkscape.org/namespaces/inkscape"
   version="1.2"
   width="60mm"
   height="60mm"
   viewBox="0 0 6000 6000"
   preserveAspectRatio="xMidYMid"
   fill-rule="evenodd"
   stroke-width="28.222"
   stroke-linejoin="round"
   xml:space="preserve"
   id="svg210"
   sodipodi:docname="F2L.inscape.svg"
   inkscape:version="0.92.3 (2405546, 2018-03-11)"><metadata
   id="metadata214"><rdf:RDF><cc:Work
       rdf:about=""><dc:format>image/svg+xml</dc:format><dc:type
         rdf:resource="http://purl.org/dc/dcmitype/StillImage" /><dc:title /></cc:Work></rdf:RDF></metadata><sodipodi:namedview
   pagecolor="#ffffff"
   bordercolor="#666666"
   borderopacity="1"
   objecttolerance="10"
   gridtolerance="10"
   guidetolerance="10"
   inkscape:pageopacity="0"
   inkscape:pageshadow="2"
   inkscape:window-width="1613"
   inkscape:window-height="995"
   id="namedview212"
   showgrid="false"
   inkscape:snap-page="false"
   inkscape:zoom="1.4142136"
   inkscape:cx="131.08311"
   inkscape:cy="160.78308"
   inkscape:window-x="67"
   inkscape:window-y="27"
   inkscape:window-maximized="1"
   inkscape:current-layer="svg210" />
 <defs
   class="ClipPathGroup"
   id="defs8">
  <clipPath
   id="presentation_clip_path"
   clipPathUnits="userSpaceOnUse">
   <rect
   x="0"
   y="0"
   width="6000"
   height="6000"
   id="rect2" />
  </clipPath>
  <clipPath
   id="presentation_clip_path_shrink"
   clipPathUnits="userSpaceOnUse">
   <rect
   x="6"
   y="6"
   width="5988"
   height="5988"
   id="rect5" />
  </clipPath>
 </defs>
 <defs
   class="TextShapeIndex"
   id="defs12">
  <g
   ooo:slide="id1"
   ooo:id-list="id3 id4 id5 id6 id7 id8 id9 id10 id11 id12 id13 id14 id15 id16 id17 id18 id19 id20 id21 id22 id23"
   id="g10" />
 </defs>
 <defs
   class="EmbeddedBulletChars"
   id="defs44">
  <g
   id="bullet-char-template-57356"
   transform="scale(0.00048828125,-0.00048828125)">
   <path
   d="M 580,1141 L 1163,571 580,0 -4,571 580,1141 Z"
   id="path14" />
  </g>
  <g
   id="bullet-char-template-57354"
   transform="scale(0.00048828125,-0.00048828125)">
   <path
   d="M 8,1128 L 1137,1128 1137,0 8,0 8,1128 Z"
   id="path17" />
  </g>
  <g
   id="bullet-char-template-10146"
   transform="scale(0.00048828125,-0.00048828125)">
   <path
   d="M 174,0 L 602,739 174,1481 1456,739 174,0 Z M 1358,739 L 309,1346 659,739 1358,739 Z"
   id="path20" />
  </g>
  <g
   id="bullet-char-template-10132"
   transform="scale(0.00048828125,-0.00048828125)">
   <path
   d="M 2015,739 L 1276,0 717,0 1260,543 174,543 174,936 1260,936 717,1481 1274,1481 2015,739 Z"
   id="path23" />
  </g>
  <g
   id="bullet-char-template-10007"
   transform="scale(0.00048828125,-0.00048828125)">
   <path
   d="M 0,-2 C -7,14 -16,27 -25,37 L 356,567 C 262,823 215,952 215,954 215,979 228,992 255,992 264,992 276,990 289,987 310,991 331,999 354,1012 L 381,999 492,748 772,1049 836,1024 860,1049 C 881,1039 901,1025 922,1006 886,937 835,863 770,784 769,783 710,716 594,584 L 774,223 C 774,196 753,168 711,139 L 727,119 C 717,90 699,76 672,76 641,76 570,178 457,381 L 164,-76 C 142,-110 111,-127 72,-127 30,-127 9,-110 8,-76 1,-67 -2,-52 -2,-32 -2,-23 -1,-13 0,-2 Z"
   id="path26" />
  </g>
  <g
   id="bullet-char-template-10004"
   transform="scale(0.00048828125,-0.00048828125)">
   <path
   d="M 285,-33 C 182,-33 111,30 74,156 52,228 41,333 41,471 41,549 55,616 82,672 116,743 169,778 240,778 293,778 328,747 346,684 L 369,508 C 377,444 397,411 428,410 L 1163,1116 C 1174,1127 1196,1133 1229,1133 1271,1133 1292,1118 1292,1087 L 1292,965 C 1292,929 1282,901 1262,881 L 442,47 C 390,-6 338,-33 285,-33 Z"
   id="path29" />
  </g>
  <g
   id="bullet-char-template-9679"
   transform="scale(0.00048828125,-0.00048828125)">
   <path
   d="M 813,0 C 632,0 489,54 383,161 276,268 223,411 223,592 223,773 276,916 383,1023 489,1130 632,1184 813,1184 992,1184 1136,1130 1245,1023 1353,916 1407,772 1407,592 1407,412 1353,268 1245,161 1136,54 992,0 813,0 Z"
   id="path32" />
  </g>
  <g
   id="bullet-char-template-8226"
   transform="scale(0.00048828125,-0.00048828125)">
   <path
   d="M 346,457 C 273,457 209,483 155,535 101,586 74,649 74,723 74,796 101,859 155,911 209,963 273,989 346,989 419,989 480,963 531,910 582,859 608,796 608,723 608,648 583,586 532,535 482,483 420,457 346,457 Z"
   id="path35" />
  </g>
  <g
   id="bullet-char-template-8211"
   transform="scale(0.00048828125,-0.00048828125)">
   <path
   d="M -4,459 L 1135,459 1135,606 -4,606 -4,459 Z"
   id="path38" />
  </g>
  <g
   id="bullet-char-template-61548"
   transform="scale(0.00048828125,-0.00048828125)">
   <path
   d="M 173,740 C 173,903 231,1043 346,1159 462,1274 601,1332 765,1332 928,1332 1067,1274 1183,1159 1299,1043 1357,903 1357,740 1357,577 1299,437 1183,322 1067,206 928,148 765,148 601,148 462,206 346,322 231,437 173,577 173,740 Z"
   id="path41" />
  </g>
 </defs>
 <defs
   class="TextEmbeddedBitmaps"
   id="defs46" />
 <path
   style="fill:#ffffff;fill-opacity:1;stroke-width:290.07592773"
   inkscape:transform-center-x="-51.295855"
   inkscape:transform-center-y="30.383316"
   d="M 4931.9854,4574.831 4065,4254 l -1020.5277,386.791 865.6898,318.9759 z"
   id="path4738-3-56-1-8"
   inkscape:connector-curvature="0"
   sodipodi:nodetypes="ccccc" /><path
   style="fill:#ffffff;fill-opacity:1;stroke-width:290.07592773"
   inkscape:transform-center-x="-51.295855"
   inkscape:transform-center-y="30.383316"
   d="M 5684.135,4867.068 4965,4584 3953.0654,4968.2531 4675,5246 Z"
   id="path4738-3-56-1-7"
   inkscape:connector-curvature="0"
   sodipodi:nodetypes="ccccc" /><path
   style="fill:#ffffff;fill-opacity:1;stroke-width:290.07592773"
   inkscape:transform-center-x="-51.295855"
   inkscape:transform-center-y="30.383316"
   d="M 4653.691,5231.9799 3910.1621,4959.7669 3049.685,5280.9535 3775,5566 Z"
   id="path4738-3-56-1-9"
   inkscape:connector-curvature="0"
   sodipodi:nodetypes="ccccc" /><path
   style="fill:#ffffff;fill-opacity:1;stroke-width:290.07592773"
   inkscape:transform-center-x="-51.295855"
   inkscape:transform-center-y="30.383316"
   d="M 3775,5566 3023.8093,5285.421 2268.476,5572.3236 2995,5856 Z"
   id="path4738-3-56-1-92"
   inkscape:connector-curvature="0"
   sodipodi:nodetypes="ccccc" /><path
   style="fill:#ffffff;fill-opacity:1;stroke-width:290.07592773"
   inkscape:transform-center-x="-51.295855"
   inkscape:transform-center-y="30.383316"
   d="m 3869.3454,4967.786 -857.6732,-319.5967 -863.4746,311.6412 875.6117,325.5905 z"
   id="path4738-3-56-1-2"
   inkscape:connector-curvature="0"
   sodipodi:nodetypes="ccccc" /><path
   style="fill:#ffffff;fill-opacity:1;stroke-width:290.07592773"
   inkscape:transform-center-x="-51.295855"
   inkscape:transform-center-y="30.383316"
   d="M 3007.3107,5297.461 2109.5512,4977.3111 1367.0563,5255.2288 2240,5576 Z"
   id="path4738-3-56-1-75"
   inkscape:connector-curvature="0"
   sodipodi:nodetypes="ccccc" /><path
   style="fill:#ffffff;fill-opacity:1;stroke-width:290.07592773"
   inkscape:transform-center-x="-51.295855"
   inkscape:transform-center-y="30.383316"
   d="M 2096.729,4969.0183 1050,4574 297.85986,4860.1904 1340,5246 Z"
   id="path4738-3-56-1-23"
   inkscape:connector-curvature="0"
   sodipodi:nodetypes="ccccc" /><path
   style="fill:#ffffff;fill-opacity:1;stroke-width:290.07592773"
   inkscape:transform-center-x="-51.295855"
   inkscape:transform-center-y="30.383316"
   d="M 2973.4009,4640.312 1950,4254 l -874.1005,312.5086 1048.2994,386.5119 z"
   id="path4738-3-56-1-0"
   inkscape:connector-curvature="0"
   sodipodi:nodetypes="ccccc" /><path
   style="fill:#ffffff;fill-opacity:1;stroke-width:290.0758667"
   inkscape:transform-center-x="-51.295855"
   inkscape:transform-center-y="30.383316"
   d="M 4046.3776,4239.5538 3000,3835 1972.3115,4244.0938 3006.5792,4628.2671 Z"
   id="path4738-3-56-1"
   inkscape:connector-curvature="0"
   sodipodi:nodetypes="ccccc" /><path
   style="fill:#e00000;fill-opacity:1;stroke-width:518.230896"
   inkscape:transform-center-x="69.674691"
   inkscape:transform-center-y="-47.478058"
   d="m 4915.8792,3468.8005 728.5654,332.7976 77.0057,1011.0713 -767.9986,-282.0957 z"
   id="path4738-3-1-26"
   inkscape:connector-curvature="0"
   sodipodi:nodetypes="ccccc" /><path
   style="fill:#e00000;fill-opacity:1;stroke-width:518.230896"
   inkscape:transform-center-x="69.674691"
   inkscape:transform-center-y="-47.478058"
   d="m 3019,2622 975.0991,422.7013 24.0689,1153.571 -1001.2053,-356.2805 z"
   id="path4738-3-1-6"
   inkscape:connector-curvature="0"
   sodipodi:nodetypes="ccccc" /><path
   style="fill:#e00000;fill-opacity:1;stroke-width:518.230896"
   inkscape:transform-center-x="69.674691"
   inkscape:transform-center-y="-47.478058"
   d="m 4037.2573,3071.2165 826.2024,367.8767 47.7729,1070.7058 -848.6804,-293.2039 z"
   id="path4738-3-1-06"
   inkscape:connector-curvature="0"
   sodipodi:nodetypes="ccccc" /><path
   style="fill:#e00000;fill-opacity:1;stroke-width:518.230896"
   inkscape:transform-center-x="69.674691"
   inkscape:transform-center-y="-47.478058"
   d="m 4030.7709,1838.7155 780.4138,421.4099 40.6463,1127.4869 -811.8121,-361.5494 z"
   id="path4738-3-1-9"
   inkscape:connector-curvature="0"
   sodipodi:nodetypes="ccccc" /><path
   style="fill:#e00000;fill-opacity:1;stroke-width:518.230896"
   inkscape:transform-center-x="69.674691"
   inkscape:transform-center-y="-47.478058"
   d="m 4858.6141,2277.9902 701.3961,400.5366 84.0215,1080.0602 -725.319,-344.0687 z"
   id="path4738-3-1-0"
   inkscape:connector-curvature="0"
   sodipodi:nodetypes="ccccc" /><path
   style="fill:#808080;fill-opacity:1;stroke-width:518.230896"
   inkscape:transform-center-x="69.674691"
   inkscape:transform-center-y="-47.478058"
   d="m 4023,818 744.4729,497.8096 39.5227,904.4562 -803.947,-441.8855 z"
   id="path4738-3-1-2"
   inkscape:connector-curvature="0"
   sodipodi:nodetypes="ccccc" /><path
   style="fill:#e00000;fill-opacity:1;stroke-width:518.230896"
   inkscape:transform-center-x="69.674691"
   inkscape:transform-center-y="-47.478058"
   d="m 3033.46,1274.2152 934.9062,512.4198 23.7926,1217.9353 -976.9784,-428.4026 z"
   id="path4738-3-1-3"
   inkscape:connector-curvature="0"
   sodipodi:nodetypes="ccccc" /><path
   style="fill:#808080;fill-opacity:1;stroke-width:518.230896"
   inkscape:transform-center-x="69.674691"
   inkscape:transform-center-y="-47.478058"
   d="M 4823.4278,1360.0176 5500,1795 l 56.2869,834.7046 -705.0719,-378.965 z"
   id="path4738-3-1-7"
   inkscape:connector-curvature="0"
   sodipodi:nodetypes="ccccc" /><path
   style="fill:#808080;fill-opacity:1;stroke-width:518.23083496"
   inkscape:transform-center-x="69.674691"
   inkscape:transform-center-y="-47.478058"
   d="m 3037.9046,172.53903 911.7125,598.01276 26.6648,974.81171 -951.5045,-504.7672 z"
   id="path4738-3-1"
   inkscape:connector-curvature="0"
   sodipodi:nodetypes="ccccc" /><path
   style="fill:#0000f7;fill-opacity:1;stroke-width:518.23083496"
   inkscape:transform-center-x="-69.674691"
   inkscape:transform-center-y="-47.478058"
   d="m 2980.2887,1269.7049 -940.2457,500.7357 -31.4317,1240.1718 984.3393,-441.2022 z"
   id="path4738-3-3"
   inkscape:connector-curvature="0"
   sodipodi:nodetypes="ccccc" /><path
   style="fill:#0000f7;fill-opacity:1;stroke-width:518.23083496"
   inkscape:transform-center-x="-69.674691"
   inkscape:transform-center-y="-47.478058"
   d="M 2988.8005,2602.5887 2019.8847,3032.1692 1993.2199,4189.714 3000,3835 Z"
   id="path4738-3-56"
   inkscape:connector-curvature="0"
   sodipodi:nodetypes="ccccc" /><path
   style="fill:#0000f7;fill-opacity:1;stroke-width:518.23083496"
   inkscape:transform-center-x="-69.674691"
   inkscape:transform-center-y="-47.478058"
   d="m 1957.8303,3085.9732 -796.5871,331.7108 -50.4996,1089.2185 851.3987,-302.9663 z"
   id="path4738-3-2"
   inkscape:connector-curvature="0"
   sodipodi:nodetypes="ccccc" /><path
   style="fill:#0000f7;fill-opacity:1;stroke-width:518.23083496"
   inkscape:transform-center-x="-69.674691"
   inkscape:transform-center-y="-47.478058"
   d="m 1116.7942,3457.0165 -765.52608,337.4196 -72.74532,995.4684 792.6063,-261.6528 z"
   id="path4738-3-9"
   inkscape:connector-curvature="0"
   sodipodi:nodetypes="ccccc" /><path
   style="fill:#0000f7;fill-opacity:1;stroke-width:518.23083496"
   inkscape:transform-center-x="-69.674691"
   inkscape:transform-center-y="-47.478058"
   d="m 1977.5934,1823.7545 -756.7867,408.9237 -51.294,1165.4897 802.1402,-366.5257 z"
   id="path4738-3-5"
   inkscape:connector-curvature="0"
   sodipodi:nodetypes="ccccc" /><path
   style="fill:#808080;fill-opacity:1;stroke-width:518.23077393"
   inkscape:transform-center-x="-69.674691"
   inkscape:transform-center-y="-47.478058"
   d="m 1993.1502,822.68108 -722.2077,462.23362 -34.6283,898.4614 744.9368,-411.4144 z"
   id="path4738-3"
   inkscape:connector-curvature="0"
   sodipodi:nodetypes="ccccc" /><path
   style="fill:#0000f7;fill-opacity:1;stroke-width:518.23083496"
   inkscape:transform-center-x="-69.674691"
   inkscape:transform-center-y="-47.478058"
   d="M 1192.746,2265.3822 433.57588,2677.4839 357.65258,3757.1685 1137.547,3414.4776 Z"
   id="path4738-3-7"
   inkscape:connector-curvature="0"
   sodipodi:nodetypes="ccccc" /><path
   style="fill:#808080;fill-opacity:1;stroke-width:518.23083496"
   inkscape:transform-center-x="-69.674691"
   inkscape:transform-center-y="-47.478058"
   d="M 1214.353,1336.0156 500,1795 436.46292,2641.8909 1168.6879,2257.8864 Z"
   id="path4738-3-6"
   inkscape:connector-curvature="0"
   sodipodi:nodetypes="ccccc" /><path
   transform="rotate(4.2926736,-8886.4522,16902.941)"
   style="fill:#808080;fill-opacity:1;stroke-width:746.70709229"
   inkscape:transform-center-x="-106.29793"
   inkscape:transform-center-y="-64.609621"
   d="M 1689.4297,-681.53809 816.58413,-10.273713 876.65392,977.23027 1788.0987,397.79035 Z"
   id="path4738"
   inkscape:connector-curvature="0"
   sodipodi:nodetypes="ccccc" /><g
   id="g51">
  <g
   id="id2"
   class="Master_Slide">
   <g
   id="bg-id2"
   class="Background" />
   <g
   id="bo-id2"
   class="BackgroundObjects" />
  </g>
 </g>
 <g
   class="SlideGroup"
   id="g208">
  <g
   id="g206">
   <g
   id="container-id1">
    <g
   id="id1"
   class="Slide"
   clip-path="url(#presentation_clip_path)">
     <g
   class="Page"
   id="g202">
      <g
   class="Group"
   id="g200">
       <g
   class="com.sun.star.drawing.LineShape"
   id="g58">
        <g
   id="id3">
         <rect
   class="BoundingBox"
   stroke="none"
   fill="none"
   x="2947"
   y="142"
   width="107"
   height="3707"
   id="rect53" />
         <path
   fill="none"
   stroke="rgb(0,0,0)"
   stroke-width="106"
   stroke-linejoin="miter"
   stroke-linecap="round"
   d="M 3000,3795 L 3000,195"
   id="path55" />
        </g>
       </g>
       <g
   class="com.sun.star.drawing.LineShape"
   id="g65">
        <g
   id="id4">
         <rect
   class="BoundingBox"
   stroke="none"
   fill="none"
   x="473"
   y="118"
   width="2555"
   height="1705"
   id="rect60" />
         <path
   fill="none"
   stroke="rgb(0,0,0)"
   stroke-width="53"
   stroke-linejoin="miter"
   stroke-linecap="round"
   d="M 500,1795 L 3000,145"
   id="path62" />
        </g>
       </g>
       <g
   class="com.sun.star.drawing.LineShape"
   id="g72">
        <g
   id="id5">
         <rect
   class="BoundingBox"
   stroke="none"
   fill="none"
   x="243"
   y="1768"
   width="285"
   height="3115"
   id="rect67" />
         <path
   fill="none"
   stroke="rgb(0,0,0)"
   stroke-width="53"
   stroke-linejoin="miter"
   stroke-linecap="round"
   d="M 270,4855 L 500,1795"
   id="path69" />
        </g>
       </g>
       <g
   class="com.sun.star.drawing.LineShape"
   id="g79">
        <g
   id="id6">
         <rect
   class="BoundingBox"
   stroke="none"
   fill="none"
   x="243"
   y="4837"
   width="2780"
   height="1047"
   id="rect74" />
         <path
   fill="none"
   stroke="rgb(0,0,0)"
   stroke-width="53"
   stroke-linejoin="miter"
   stroke-linecap="round"
   d="M 2995,5856 L 270,4864"
   id="path76" />
        </g>
       </g>
       <g
   class="com.sun.star.drawing.LineShape"
   id="g86">
        <g
   id="id7">
         <rect
   class="BoundingBox"
   stroke="none"
   fill="none"
   x="2973"
   y="4837"
   width="2780"
   height="1047"
   id="rect81" />
         <path
   fill="none"
   stroke="rgb(0,0,0)"
   stroke-width="53"
   stroke-linejoin="miter"
   stroke-linecap="round"
   d="M 3000,5856 L 5725,4864"
   id="path83" />
        </g>
       </g>
       <g
   class="com.sun.star.drawing.LineShape"
   id="g93">
        <g
   id="id8">
         <rect
   class="BoundingBox"
   stroke="none"
   fill="none"
   x="247"
   y="3782"
   width="2807"
   height="1099"
   id="rect88" />
         <path
   fill="none"
   stroke="rgb(0,0,0)"
   stroke-width="106"
   stroke-linejoin="miter"
   stroke-linecap="round"
   d="M 300,4827 L 3000,3835"
   id="path90" />
        </g>
       </g>
       <g
   class="com.sun.star.drawing.LineShape"
   id="g100">
        <g
   id="id9">
         <rect
   class="BoundingBox"
   stroke="none"
   fill="none"
   x="1313"
   y="4227"
   width="2780"
   height="1047"
   id="rect95" />
         <path
   fill="none"
   stroke="rgb(0,0,0)"
   stroke-width="53"
   stroke-linejoin="miter"
   stroke-linecap="round"
   d="M 4065,4254 L 1340,5246"
   id="path97" />
        </g>
       </g>
       <g
   class="com.sun.star.drawing.LineShape"
   id="g107">
        <g
   id="id10">
         <rect
   class="BoundingBox"
   stroke="none"
   fill="none"
   x="1923"
   y="4227"
   width="2780"
   height="1047"
   id="rect102" />
         <path
   fill="none"
   stroke="rgb(0,0,0)"
   stroke-width="53"
   stroke-linejoin="miter"
   stroke-linecap="round"
   d="M 1950,4254 L 4675,5246"
   id="path104" />
        </g>
       </g>
       <g
   class="com.sun.star.drawing.LineShape"
   id="g114">
        <g
   id="id11">
         <rect
   class="BoundingBox"
   stroke="none"
   fill="none"
   x="2213"
   y="4557"
   width="2780"
   height="1047"
   id="rect109" />
         <path
   fill="none"
   stroke="rgb(0,0,0)"
   stroke-width="53"
   stroke-linejoin="miter"
   stroke-linecap="round"
   d="M 4965,4584 L 2240,5576"
   id="path111" />
        </g>
       </g>
       <g
   class="com.sun.star.drawing.LineShape"
   id="g121">
        <g
   id="id12">
         <rect
   class="BoundingBox"
   stroke="none"
   fill="none"
   x="1023"
   y="4547"
   width="2780"
   height="1047"
   id="rect116" />
         <path
   fill="none"
   stroke="rgb(0,0,0)"
   stroke-width="53"
   stroke-linejoin="miter"
   stroke-linecap="round"
   d="M 1050,4574 L 3775,5566"
   id="path118" />
        </g>
       </g>
       <g
   class="com.sun.star.drawing.LineShape"
   id="g128">
        <g
   id="id13">
         <rect
   class="BoundingBox"
   stroke="none"
   fill="none"
   x="2973"
   y="118"
   width="2555"
   height="1705"
   id="rect123" />
         <path
   fill="none"
   stroke="rgb(0,0,0)"
   stroke-width="53"
   stroke-linejoin="miter"
   stroke-linecap="round"
   d="M 5500,1795 L 3000,145"
   id="path125" />
        </g>
       </g>
       <g
   class="com.sun.star.drawing.LineShape"
   id="g135">
        <g
   id="id14">
         <rect
   class="BoundingBox"
   stroke="none"
   fill="none"
   x="5473"
   y="1768"
   width="285"
   height="3115"
   id="rect130" />
         <path
   fill="none"
   stroke="rgb(0,0,0)"
   stroke-width="53"
   stroke-linejoin="miter"
   stroke-linecap="round"
   d="M 5730,4855 L 5500,1795"
   id="path132" />
        </g>
       </g>
       <g
   class="com.sun.star.drawing.LineShape"
   id="g142">
        <g
   id="id15">
         <rect
   class="BoundingBox"
   stroke="none"
   fill="none"
   x="2947"
   y="3782"
   width="2807"
   height="1099"
   id="rect137" />
         <path
   fill="none"
   stroke="rgb(0,0,0)"
   stroke-width="106"
   stroke-linejoin="miter"
   stroke-linecap="round"
   d="M 5700,4827 L 3000,3835"
   id="path139" />
        </g>
       </g>
       <g
   class="com.sun.star.drawing.CustomShape"
   id="g149">
        <g
   id="id16">
         <rect
   class="BoundingBox"
   stroke="none"
   fill="none"
   x="1039"
   y="1293"
   width="248"
   height="3304"
   id="rect144" />
         <path
   fill="rgb(0,0,0)"
   stroke="none"
   d="M 1181,1363 L 1040,4591 1144,4525 1285,1298 1181,1363 Z M 1184,1293 L 1184,1293 Z M 1141,4596 L 1141,4596 Z"
   id="path146" />
        </g>
       </g>
       <g
   class="com.sun.star.drawing.CustomShape"
   id="g156">
        <g
   id="id17">
         <rect
   class="BoundingBox"
   stroke="none"
   fill="none"
   x="4740"
   y="1292"
   width="248"
   height="3304"
   id="rect151" />
         <path
   fill="rgb(0,0,0)"
   stroke="none"
   d="M 4882,4525 L 4741,1297 4845,1363 4986,4590 4882,4525 Z M 4885,4595 L 4885,4595 Z M 4842,1292 L 4842,1292 Z"
   id="path153" />
        </g>
       </g>
       <g
   class="com.sun.star.drawing.CustomShape"
   id="g163">
        <g
   id="id18">
         <rect
   class="BoundingBox"
   stroke="none"
   fill="none"
   x="1919"
   y="744"
   width="164"
   height="3504"
   id="rect158" />
         <path
   fill="rgb(0,0,0)"
   stroke="none"
   d="M 1979,818 L 1919,4245 2022,4172 2082,746 1979,818 Z M 1981,744 L 1981,744 Z M 2020,4247 L 2020,4247 Z"
   id="path160" />
        </g>
       </g>
       <g
   class="com.sun.star.drawing.CustomShape"
   id="g170">
        <g
   id="id19">
         <rect
   class="BoundingBox"
   stroke="none"
   fill="none"
   x="3920"
   y="743"
   width="164"
   height="3504"
   id="rect165" />
         <path
   fill="rgb(0,0,0)"
   stroke="none"
   d="M 3980,4172 L 3920,745 4023,818 4083,4244 3980,4172 Z M 3982,4246 L 3982,4246 Z M 4021,743 L 4021,743 Z"
   id="path167" />
        </g>
       </g>
       <g
   class="com.sun.star.drawing.CustomShape"
   id="g177">
        <g
   id="id20">
         <rect
   class="BoundingBox"
   stroke="none"
   fill="none"
   x="342"
   y="2511"
   width="2717"
   height="1320"
   id="rect172" />
         <path
   fill="rgb(0,0,0)"
   stroke="none"
   d="M 380,3719 L 3030,2511 3019,2622 369,3829 380,3719 Z M 343,3736 L 343,3736 Z M 3057,2604 L 3057,2604 Z"
   id="path174" />
        </g>
       </g>
       <g
   class="com.sun.star.drawing.CustomShape"
   id="g184">
        <g
   id="id21">
         <rect
   class="BoundingBox"
   stroke="none"
   fill="none"
   x="399"
   y="1193"
   width="2625"
   height="1531"
   id="rect179" />
         <path
   fill="rgb(0,0,0)"
   stroke="none"
   d="M 433,2613 L 2993,1194 2988,1304 429,2722 433,2613 Z M 399,2631 L 399,2631 Z M 3023,1285 L 3023,1285 Z"
   id="path181" />
        </g>
       </g>
       <g
   class="com.sun.star.drawing.CustomShape"
   id="g191">
        <g
   id="id22">
         <rect
   class="BoundingBox"
   stroke="none"
   fill="none"
   x="2988"
   y="1193"
   width="2627"
   height="1531"
   id="rect186" />
         <path
   fill="rgb(0,0,0)"
   stroke="none"
   d="M 5579,2613 L 3019,1194 3024,1304 5583,2722 5579,2613 Z M 5613,2632 L 5613,2632 Z M 2989,1284 L 2989,1284 Z"
   id="path188" />
        </g>
       </g>
       <g
   class="com.sun.star.drawing.CustomShape"
   id="g198">
        <g
   id="id23">
         <rect
   class="BoundingBox"
   stroke="none"
   fill="none"
   x="2952"
   y="2512"
   width="2717"
   height="1320"
   id="rect193" />
         <path
   fill="rgb(0,0,0)"
   stroke="none"
   d="M 5630,3720 L 2980,2512 2991,2623 5641,3830 5630,3720 Z M 5667,3737 L 5667,3737 Z M 2953,2605 L 2953,2605 Z"
   id="path195" />
        </g>
       </g>
      </g>
     </g>
    </g>
   </g>
  </g>
 </g>
</svg>