<?xml version="1.0" encoding="UTF-8" standalone="no"?>
<svg
   xmlns:ooo="http://xml.openoffice.org/svg/export"
   xmlns:dc="http://purl.org/dc/elements/1.1/"
   xmlns:cc="http://creativecommons.org/ns#"
   xmlns:rdf="http://www.w3.org/1999/02/22-rdf-syntax-ns#"
   xmlns:svg="http://www.w3.org/2000/svg"
   xmlns="http://www.w3.org/2000/svg"
   xmlns:sodipodi="http://sodipodi.sourceforge.net/DTD/sodipodi-0.dtd"
   xmlns:inkscape="http://www.inkscape.org/namespaces/inkscape"
   version="1.2"
   width="33.5mm"
   height="33.5mm"
   viewBox="0 0 5317.7951 5317.7951"
   preserveAspectRatio="xMidYMid"
   xml:space="preserve"
   id="svg210"
   sodipodi:docname="petit-cube-fait-miroir.inscape.svg"
   style="fill-rule:evenodd;stroke-width:28.22200012;stroke-linejoin:round"
   inkscape:version="0.92.3 (2405546, 2018-03-11)"><metadata
   id="metadata214"><rdf:RDF><cc:Work
       rdf:about=""><dc:format>image/svg+xml</dc:format><dc:type
         rdf:resource="http://purl.org/dc/dcmitype/StillImage" /><dc:title /></cc:Work></rdf:RDF></metadata><sodipodi:namedview
   pagecolor="#ffffff"
   bordercolor="#666666"
   borderopacity="1"
   objecttolerance="10"
   gridtolerance="10"
   guidetolerance="10"
   inkscape:pageopacity="0"
   inkscape:pageshadow="2"
   inkscape:window-width="1613"
   inkscape:window-height="995"
   id="namedview212"
   showgrid="false"
   inkscape:snap-to-guides="true"
   inkscape:snap-grids="true"
   inkscape:snap-others="false"
   inkscape:object-nodes="false"
   inkscape:zoom="4"
   inkscape:cx="48.991903"
   inkscape:cy="65.182348"
   inkscape:window-x="67"
   inkscape:window-y="27"
   inkscape:window-maximized="1"
   inkscape:current-layer="svg210"
   fit-margin-top="0"
   fit-margin-right="0"
   scale-x="42" />
 <defs
   class="ClipPathGroup"
   id="defs8">
  <clipPath
   id="presentation_clip_path"
   clipPathUnits="userSpaceOnUse">
   <rect
   x="0"
   y="0"
   width="6000"
   height="6000"
   id="rect2" />
  </clipPath>
  <clipPath
   id="presentation_clip_path_shrink"
   clipPathUnits="userSpaceOnUse">
   <rect
   x="6"
   y="6"
   width="5988"
   height="5988"
   id="rect5" />
  </clipPath>
 </defs>
 <defs
   class="TextShapeIndex"
   id="defs12">
  <g
   ooo:slide="id1"
   ooo:id-list="id3 id4 id5 id6 id7 id8 id9 id10 id11 id12 id13 id14 id15 id16 id17 id18 id19 id20 id21 id22 id23"
   id="g10" />
 </defs>
 <defs
   class="EmbeddedBulletChars"
   id="defs44">
  <g
   id="bullet-char-template-57356"
   transform="matrix(4.8828125e-4,0,0,-4.8828125e-4,0,0)">
   <path
   d="M 580,1141 1163,571 580,0 -4,571 Z"
   id="path14"
   inkscape:connector-curvature="0" />
  </g>
  <g
   id="bullet-char-template-57354"
   transform="matrix(4.8828125e-4,0,0,-4.8828125e-4,0,0)">
   <path
   d="M 8,1128 H 1137 V 0 H 8 Z"
   id="path17"
   inkscape:connector-curvature="0" />
  </g>
  <g
   id="bullet-char-template-10146"
   transform="matrix(4.8828125e-4,0,0,-4.8828125e-4,0,0)">
   <path
   d="M 174,0 602,739 174,1481 1456,739 Z M 1358,739 309,1346 659,739 Z"
   id="path20"
   inkscape:connector-curvature="0" />
  </g>
  <g
   id="bullet-char-template-10132"
   transform="matrix(4.8828125e-4,0,0,-4.8828125e-4,0,0)">
   <path
   d="M 2015,739 1276,0 H 717 l 543,543 H 174 v 393 h 1086 l -543,545 h 557 z"
   id="path23"
   inkscape:connector-curvature="0" />
  </g>
  <g
   id="bullet-char-template-10007"
   transform="matrix(4.8828125e-4,0,0,-4.8828125e-4,0,0)">
   <path
   d="m 0,-2 c -7,16 -16,29 -25,39 l 381,530 c -94,256 -141,385 -141,387 0,25 13,38 40,38 9,0 21,-2 34,-5 21,4 42,12 65,25 l 27,-13 111,-251 280,301 64,-25 24,25 c 21,-10 41,-24 62,-43 C 886,937 835,863 770,784 769,783 710,716 594,584 L 774,223 c 0,-27 -21,-55 -63,-84 l 16,-20 C 717,90 699,76 672,76 641,76 570,178 457,381 L 164,-76 c -22,-34 -53,-51 -92,-51 -42,0 -63,17 -64,51 -7,9 -10,24 -10,44 0,9 1,19 2,30 z"
   id="path26"
   inkscape:connector-curvature="0" />
  </g>
  <g
   id="bullet-char-template-10004"
   transform="matrix(4.8828125e-4,0,0,-4.8828125e-4,0,0)">
   <path
   d="M 285,-33 C 182,-33 111,30 74,156 52,228 41,333 41,471 c 0,78 14,145 41,201 34,71 87,106 158,106 53,0 88,-31 106,-94 l 23,-176 c 8,-64 28,-97 59,-98 l 735,706 c 11,11 33,17 66,17 42,0 63,-15 63,-46 V 965 c 0,-36 -10,-64 -30,-84 L 442,47 C 390,-6 338,-33 285,-33 Z"
   id="path29"
   inkscape:connector-curvature="0" />
  </g>
  <g
   id="bullet-char-template-9679"
   transform="matrix(4.8828125e-4,0,0,-4.8828125e-4,0,0)">
   <path
   d="M 813,0 C 632,0 489,54 383,161 276,268 223,411 223,592 c 0,181 53,324 160,431 106,107 249,161 430,161 179,0 323,-54 432,-161 108,-107 162,-251 162,-431 0,-180 -54,-324 -162,-431 C 1136,54 992,0 813,0 Z"
   id="path32"
   inkscape:connector-curvature="0" />
  </g>
  <g
   id="bullet-char-template-8226"
   transform="matrix(4.8828125e-4,0,0,-4.8828125e-4,0,0)">
   <path
   d="m 346,457 c -73,0 -137,26 -191,78 -54,51 -81,114 -81,188 0,73 27,136 81,188 54,52 118,78 191,78 73,0 134,-26 185,-79 51,-51 77,-114 77,-187 0,-75 -25,-137 -76,-188 -50,-52 -112,-78 -186,-78 z"
   id="path35"
   inkscape:connector-curvature="0" />
  </g>
  <g
   id="bullet-char-template-8211"
   transform="matrix(4.8828125e-4,0,0,-4.8828125e-4,0,0)">
   <path
   d="M -4,459 H 1135 V 606 H -4 Z"
   id="path38"
   inkscape:connector-curvature="0" />
  </g>
  <g
   id="bullet-char-template-61548"
   transform="matrix(4.8828125e-4,0,0,-4.8828125e-4,0,0)">
   <path
   d="m 173,740 c 0,163 58,303 173,419 116,115 255,173 419,173 163,0 302,-58 418,-173 116,-116 174,-256 174,-419 0,-163 -58,-303 -174,-418 C 1067,206 928,148 765,148 601,148 462,206 346,322 231,437 173,577 173,740 Z"
   id="path41"
   inkscape:connector-curvature="0" />
  </g>
 </defs>
 <defs
   class="TextEmbeddedBitmaps"
   id="defs46" />
 <path
   inkscape:connector-curvature="0"
   style="fill:#fd8000;fill-opacity:1;stroke-width:439.82189941"
   inkscape:transform-center-x="-8.9184305e-05"
   inkscape:transform-center-y="-2.6451229e-05"
   d="m 50.97215,3651.6732 485.9482,471.9039 2.2472,-1191.59 -493.8133,-474.151 z"
   id="path1023-6"
   sodipodi:nodetypes="ccccc" /><path
   inkscape:connector-curvature="0"
   style="fill:#fd8000;fill-opacity:1;stroke-width:439.82189941"
   inkscape:transform-center-x="-0.00011418431"
   inkscape:transform-center-y="-2.6451229e-05"
   d="m 556.84715,4169.2687 474.71245,474.151 10.1122,-1206.1964 -480.33035,-475.2746 z"
   id="path1023-7"
   sodipodi:nodetypes="ccccc" /><path
   inkscape:connector-curvature="0"
   style="fill:#fd8000;fill-opacity:1;stroke-width:439.82189941"
   inkscape:transform-center-x="-0.00013918431"
   inkscape:transform-center-y="-2.6451229e-05"
   d="m 1049.8779,4674.0417 561.2282,551.6781 5.6179,-1212.9379 -554.4867,-546.0602 z"
   id="path1023-1"
   sodipodi:nodetypes="ccccc" /><path
   inkscape:connector-curvature="0"
   style="fill:#fd8000;fill-opacity:1;stroke-width:439.82189941"
   inkscape:transform-center-x="-0.00013918431"
   inkscape:transform-center-y="-2.6451229e-05"
   d="m 1058.0955,3448.151 560.1046,557.2961 8.9886,-1192.7136 -566.846,-552.8017 z"
   id="path1023-9"
   sodipodi:nodetypes="ccccc" /><path
   inkscape:connector-curvature="0"
   style="fill:#fd8000;fill-opacity:1;stroke-width:439.82189941"
   inkscape:transform-center-x="-0.00011418431"
   inkscape:transform-center-y="-2.6451229e-05"
   d="m 559.02815,2948.9515 476.95965,477.5217 V 2232.6361 L 562.39895,1770.8444 Z"
   id="path1023-5"
   sodipodi:nodetypes="ccccc" /><path
   inkscape:connector-curvature="0"
   style="fill:#fd8000;fill-opacity:1;stroke-width:439.82189941"
   inkscape:transform-center-x="-8.9184306e-05"
   inkscape:transform-center-y="-2.6451229e-05"
   d="m 44.58325,2447.3505 491.5661,473.0275 7.8651,-1189.3427 -498.3076,-473.0275 z"
   id="path1023-3"
   sodipodi:nodetypes="ccccc" /><path
   inkscape:connector-curvature="0"
   style="fill:#fd8000;fill-opacity:1;stroke-width:439.82183838"
   inkscape:transform-center-x="-8.9184305e-05"
   inkscape:transform-center-y="-2.6451229e-05"
   d="m 43.52815,1257.2765 490.4426,458.421 L 544.08295,544.33208 62.62905,73.551801 Z"
   id="path1023"
   sodipodi:nodetypes="ccccc" /><path
   inkscape:connector-curvature="0"
   style="fill:#fd8000;fill-opacity:1;stroke-width:439.82189941"
   inkscape:transform-center-x="-0.0001141843"
   inkscape:transform-center-y="-2.6451229e-05"
   d="M 552.70535,1752.5601 1034.1593,2209.8574 1037.53,1031.7506 559.44685,560.97028 Z"
   id="path1023-35"
   sodipodi:nodetypes="ccccc" /><path
   inkscape:connector-curvature="0"
   style="fill:#fd8000;fill-opacity:1;stroke-width:439.82189941"
   inkscape:transform-center-x="-0.00013918431"
   inkscape:transform-center-y="-2.6451229e-05"
   d="m 1048.505,2247.5217 574.7111,548.3074 3.3707,-1180.3541 -565.7224,-550.5544 z"
   id="path1023-62"
   sodipodi:nodetypes="ccccc" /><path
   inkscape:connector-curvature="0"
   style="fill:#ffffff;fill-opacity:1;stroke-width:439.82196045"
   inkscape:transform-center-x="-0.00013918431"
   inkscape:transform-center-y="-2.6451229e-05"
   d="m 1618.6597,1610.9753 1220.3391,7.9449 -576.801,-572.0338 -1191.7373,9.5338 z"
   id="path1023-2-8"
   sodipodi:nodetypes="ccccc" /><path
   inkscape:connector-curvature="0"
   style="fill:#ffffff;fill-opacity:1;stroke-width:439.82199097"
   inkscape:transform-center-x="-0.0001391843"
   inkscape:transform-center-y="-2.6451229e-05"
   d="m 2862.003,1621.4964 1159.1992,-12.1101 -545.0212,-552.9661 -1194.9154,-6.3559 z"
   id="path1023-2-8-5"
   sodipodi:nodetypes="ccccc" /><path
   inkscape:connector-curvature="0"
   style="fill:#ffffff;fill-opacity:1;stroke-width:439.82199097"
   inkscape:transform-center-x="-0.00012718431"
   inkscape:transform-center-y="-2.6451229e-05"
   d="m 4052.9817,1603.0303 1177.4368,1.589 -552.9661,-559.322 -1175.8479,11.1229 z"
   id="path1023-2-8-9"
   sodipodi:nodetypes="ccccc" /><path
   inkscape:connector-curvature="0"
   style="fill:#ffffff;fill-opacity:1;stroke-width:439.82199097"
   inkscape:transform-center-x="-0.00013918431"
   inkscape:transform-center-y="-2.6451229e-05"
   d="m 2262.1978,1043.7084 1201.2712,-1.589 -506.8856,-498.94062 -1174.2585,14.3007 z"
   id="path1023-2-8-7"
   sodipodi:nodetypes="ccccc" /><path
   inkscape:connector-curvature="0"
   style="fill:#ffffff;fill-opacity:1;stroke-width:439.82199097"
   inkscape:transform-center-x="-0.0001191843"
   inkscape:transform-center-y="-2.6451229e-05"
   d="m 3463.469,1042.1194 1196.5046,-15.8898 -490.9959,-481.46202 -1191.7375,7.9449 z"
   id="path1023-2-8-22"
   sodipodi:nodetypes="ccccc" /><path
   inkscape:connector-curvature="0"
   style="fill:#ffffff;fill-opacity:1;stroke-width:439.82199097"
   inkscape:transform-center-x="-0.00011418431"
   inkscape:transform-center-y="-2.6451229e-05"
   d="m 1048.003,1043.4965 1198.3052,-6.144 -463.9833,-479.87302 -1234.32195,-13.983 z"
   id="path1023-2-8-2"
   sodipodi:nodetypes="ccccc" /><path
   inkscape:connector-curvature="0"
   style="fill:#ffffff;fill-opacity:1;stroke-width:439.82199097"
   inkscape:transform-center-x="-0.0001141843"
   inkscape:transform-center-y="-2.6451229e-05"
   d="M 548.00295,543.49648 1758.4901,543.17878 1264.3164,39.471074 69.40115,44.237974 Z"
   id="path1023-2-8-0"
   sodipodi:nodetypes="ccccc" /><path
   inkscape:connector-curvature="0"
   style="fill:#ffffff;fill-opacity:1;stroke-width:439.82199097"
   inkscape:transform-center-x="-0.00013918431"
   inkscape:transform-center-y="-2.6451229e-05"
   d="m 1758.4901,543.17878 1172.6698,-6.356 -465.5723,-495.762806 -1201.2712,-1.5889 z"
   id="path1023-2-8-23"
   sodipodi:nodetypes="ccccc" /><path
   inkscape:connector-curvature="0"
   style="fill:#ffffff;fill-opacity:1;stroke-width:439.82199097"
   inkscape:transform-center-x="-0.00013918431"
   inkscape:transform-center-y="-2.6451229e-05"
   d="m 2956.5834,543.17878 1191.4196,0.3177 -500,-500.000006 -1182.4154,-2.4365 z"
   id="path1023-2-8-8"
   sodipodi:nodetypes="ccccc" /><path
   inkscape:connector-curvature="0"
   style="fill:#00e600;fill-opacity:1;stroke-width:439.82189941"
   inkscape:transform-center-x="-0.00013918431"
   inkscape:transform-center-y="-2.6451229e-05"
   d="m 1666.3291,5235.4456 1172.6697,-7.9449 3.1779,-1171.0806 -1180.1737,-1.9237 z"
   id="path1023-2"
   sodipodi:nodetypes="ccccc" /><path
   inkscape:connector-curvature="0"
   style="fill:#00e600;fill-opacity:1;stroke-width:439.82196045"
   inkscape:transform-center-x="-0.00013918431"
   inkscape:transform-center-y="-2.6451229e-05"
   d="m 2866.0113,5221.1448 1164.7249,-4.767 -1.589,-1164.7247 -1166.3138,-1.589 z"
   id="path1023-2-6"
   sodipodi:nodetypes="ccccc" /><path
   inkscape:connector-curvature="0"
   style="fill:#00e600;fill-opacity:1;stroke-width:439.82196045"
   inkscape:transform-center-x="-0.0001391843"
   inkscape:transform-center-y="-2.6451229e-05"
   d="m 2862.8334,4024.6405 1167.9027,-3.1779 1.589,-1155.1908 -1164.7247,-11.1228 z"
   id="path1023-2-3"
   sodipodi:nodetypes="ccccc" /><path
   inkscape:connector-curvature="0"
   style="fill:#00e600;fill-opacity:1;stroke-width:439.82196045"
   inkscape:transform-center-x="-0.00013918431"
   inkscape:transform-center-y="-2.6451229e-05"
   d="m 1672.6851,4018.2846 1156.7799,-1.589 V 2856.7379 l -1167.462,-3.2415 z"
   id="path1023-2-7"
   sodipodi:nodetypes="ccccc" /><path
   inkscape:connector-curvature="0"
   style="fill:#00e600;fill-opacity:1;stroke-width:439.82196045"
   inkscape:transform-center-x="-0.00013918431"
   inkscape:transform-center-y="-2.6451229e-05"
   d="m 1667.9182,2818.6023 1164.7248,1.589 V 1653.8777 l -1170.64,-1.3813 z"
   id="path1023-2-0"
   sodipodi:nodetypes="ccccc" /><path
   inkscape:connector-curvature="0"
   style="fill:#00e600;fill-opacity:1;stroke-width:439.82196045"
   inkscape:transform-center-x="-0.00013918431"
   inkscape:transform-center-y="-2.6451229e-05"
   d="m 2853.2995,2834.4922 1183.7925,-1.589 -1.589,-1172.6696 -1187.5,-16.7372 z"
   id="path1023-2-9"
   sodipodi:nodetypes="ccccc" /><path
   inkscape:connector-curvature="0"
   style="fill:#00e600;fill-opacity:1;stroke-width:439.82196045"
   inkscape:transform-center-x="-0.0001021843"
   inkscape:transform-center-y="-2.6451229e-05"
   d="m 4055.3852,2829.7867 1178.0742,-13.483 -5.6807,-1150.3357 -1179.7757,-22.4716 z"
   id="path1023-2-61"
   sodipodi:nodetypes="ccccc" /><path
   inkscape:connector-curvature="0"
   style="fill:#00e600;fill-opacity:1;stroke-width:439.82196045"
   inkscape:transform-center-x="-0.00012218431"
   inkscape:transform-center-y="-2.6451229e-05"
   d="m 4057.7487,4018.2846 1182.3095,-1.8009 -6.4618,-1158.1568 -1164.7249,3.178 z"
   id="path1023-2-2"
   sodipodi:nodetypes="ccccc" /><path
   inkscape:connector-curvature="0"
   style="fill:#00e600;fill-opacity:1;stroke-width:439.82196045"
   inkscape:transform-center-x="-9.7184306e-05"
   inkscape:transform-center-y="-2.6451229e-05"
   d="m 4067.2825,5213.1998 h 1167.9029 l -4.7669,-1153.6017 -1167.9029,-4.767 z"
   id="path1023-2-06"
   sodipodi:nodetypes="ccccc" /><g
   id="g51"
   transform="translate(-7.3437499,-3314.0942)">
  <g
   id="id2"
   class="Master_Slide">
   <g
   id="bg-id2"
   class="Background" />
   <g
   id="bo-id2"
   class="BackgroundObjects" />
  </g>
 </g>
 <g
   class="SlideGroup"
   id="g208"
   transform="matrix(-1,0,0,1,5348.0031,-656.50352)">
  <g
   id="g206">
   <g
   id="container-id1">
    <g
   id="id1"
   class="Slide"
   clip-path="url(#presentation_clip_path)">
     <g
   class="Page"
   id="g202">
      <g
   class="Group"
   id="g200">
       <g
   class="com.sun.star.drawing.LineShape"
   id="g58">
        <g
   id="id3">
         <rect
   class="BoundingBox"
   x="47"
   y="2247"
   width="107"
   height="3707"
   id="rect53"
   style="fill:none;stroke:none" />
         <path
   d="M 100,5900 V 2300"
   id="path55"
   inkscape:connector-curvature="0"
   style="fill:none;stroke:#000000;stroke-width:106;stroke-linecap:round;stroke-linejoin:miter" />
        </g>
       </g>
       <g
   class="com.sun.star.drawing.LineShape"
   id="g65">
        <g
   id="id4">
         <rect
   class="BoundingBox"
   x="47"
   y="5847"
   width="3707"
   height="107"
   id="rect60"
   style="fill:none;stroke:none" />
         <path
   d="M 100,5900 H 3700"
   id="path62"
   inkscape:connector-curvature="0"
   style="fill:none;stroke:#000000;stroke-width:106;stroke-linecap:round;stroke-linejoin:miter" />
        </g>
       </g>
       <g
   class="com.sun.star.drawing.LineShape"
   id="g72">
        <g
   id="id5">
         <rect
   class="BoundingBox"
   x="3647"
   y="2247"
   width="107"
   height="3707"
   id="rect67"
   style="fill:none;stroke:none" />
         <path
   d="M 3700,5900 V 2300"
   id="path69"
   inkscape:connector-curvature="0"
   style="fill:none;stroke:#000000;stroke-width:106;stroke-linecap:round;stroke-linejoin:miter" />
        </g>
       </g>
       <g
   class="com.sun.star.drawing.LineShape"
   id="g79">
        <g
   id="id6">
         <rect
   class="BoundingBox"
   x="47"
   y="2247"
   width="3707"
   height="107"
   id="rect74"
   style="fill:none;stroke:none" />
         <path
   d="M 100,2300 H 3700"
   id="path76"
   inkscape:connector-curvature="0"
   style="fill:none;stroke:#000000;stroke-width:106;stroke-linecap:round;stroke-linejoin:miter" />
        </g>
       </g>
       <g
   class="com.sun.star.drawing.LineShape"
   id="g86">
        <g
   id="id7">
         <rect
   class="BoundingBox"
   x="1247"
   y="2247"
   width="107"
   height="3707"
   id="rect81"
   style="fill:none;stroke:none" />
         <path
   d="M 1300,5900 V 2300"
   id="path83"
   inkscape:connector-curvature="0"
   style="fill:none;stroke:#000000;stroke-width:106;stroke-linecap:round;stroke-linejoin:miter" />
        </g>
       </g>
       <g
   class="com.sun.star.drawing.LineShape"
   id="g93">
        <g
   id="id8">
         <rect
   class="BoundingBox"
   x="2447"
   y="2247"
   width="107"
   height="3707"
   id="rect88"
   style="fill:none;stroke:none" />
         <path
   d="M 2500,5900 V 2300"
   id="path90"
   inkscape:connector-curvature="0"
   style="fill:none;stroke:#000000;stroke-width:106;stroke-linecap:round;stroke-linejoin:miter" />
        </g>
       </g>
       <g
   class="com.sun.star.drawing.LineShape"
   id="g100">
        <g
   id="id9">
         <rect
   class="BoundingBox"
   x="47"
   y="3447"
   width="3707"
   height="107"
   id="rect95"
   style="fill:none;stroke:none" />
         <path
   d="M 100,3500 H 3700"
   id="path97"
   inkscape:connector-curvature="0"
   style="fill:none;stroke:#000000;stroke-width:106;stroke-linecap:round;stroke-linejoin:miter" />
        </g>
       </g>
       <g
   class="com.sun.star.drawing.LineShape"
   id="g107">
        <g
   id="id10">
         <rect
   class="BoundingBox"
   x="47"
   y="4647"
   width="3707"
   height="107"
   id="rect102"
   style="fill:none;stroke:none" />
         <path
   d="M 100,4700 H 3700"
   id="path104"
   inkscape:connector-curvature="0"
   style="fill:none;stroke:#000000;stroke-width:106;stroke-linecap:round;stroke-linejoin:miter" />
        </g>
       </g>
       <g
   class="com.sun.star.drawing.LineShape"
   id="g114">
        <g
   id="id11">
         <rect
   class="BoundingBox"
   x="673"
   y="1673"
   width="3655"
   height="55"
   id="rect109"
   style="fill:none;stroke:none" />
         <path
   d="M 700,1700 H 4300"
   id="path111"
   inkscape:connector-curvature="0"
   style="fill:none;stroke:#000000;stroke-width:53;stroke-linecap:round;stroke-linejoin:miter" />
        </g>
       </g>
       <g
   class="com.sun.star.drawing.LineShape"
   id="g121">
        <g
   id="id12">
         <rect
   class="BoundingBox"
   x="1173"
   y="1173"
   width="3655"
   height="55"
   id="rect116"
   style="fill:none;stroke:none" />
         <path
   d="M 1200,1200 H 4800"
   id="path118"
   inkscape:connector-curvature="0"
   style="fill:none;stroke:#000000;stroke-width:53;stroke-linecap:round;stroke-linejoin:miter" />
        </g>
       </g>
       <g
   class="com.sun.star.drawing.LineShape"
   id="g128">
        <g
   id="id13">
         <rect
   class="BoundingBox"
   x="1673"
   y="673"
   width="3655"
   height="55"
   id="rect123"
   style="fill:none;stroke:none" />
         <path
   d="M 1700,700 H 5300"
   id="path125"
   inkscape:connector-curvature="0"
   style="fill:none;stroke:#000000;stroke-width:53;stroke-linecap:round;stroke-linejoin:miter" />
        </g>
       </g>
       <g
   class="com.sun.star.drawing.LineShape"
   id="g135">
        <g
   id="id14">
         <rect
   class="BoundingBox"
   x="4273"
   y="1673"
   width="55"
   height="3655"
   id="rect130"
   style="fill:none;stroke:none" />
         <path
   d="M 4300.7945,5320.6568 4300,1700"
   id="path132"
   inkscape:connector-curvature="0"
   style="fill:none;stroke:#000000;stroke-width:53;stroke-linecap:round;stroke-linejoin:miter"
   sodipodi:nodetypes="cc" />
        </g>
       </g>
       <g
   class="com.sun.star.drawing.LineShape"
   id="g142">
        <g
   id="id15">
         <rect
   class="BoundingBox"
   x="4773"
   y="1173"
   width="55"
   height="3655"
   id="rect137"
   style="fill:none;stroke:none" />
         <path
   d="M 4800,4800 V 1200"
   id="path139"
   inkscape:connector-curvature="0"
   style="fill:none;stroke:#000000;stroke-width:53;stroke-linecap:round;stroke-linejoin:miter" />
        </g>
       </g>
       <g
   class="com.sun.star.drawing.LineShape"
   id="g149">
        <g
   id="id16">
         <rect
   class="BoundingBox"
   x="5273"
   y="673"
   width="55"
   height="3655"
   id="rect144"
   style="fill:none;stroke:none" />
         <path
   d="M 5300,4300 V 700"
   id="path146"
   inkscape:connector-curvature="0"
   style="fill:none;stroke:#000000;stroke-width:53;stroke-linecap:round;stroke-linejoin:miter" />
        </g>
       </g>
       <g
   class="com.sun.star.drawing.LineShape"
   id="g156">
        <g
   id="id17">
         <rect
   class="BoundingBox"
   x="59"
   y="673"
   width="1669"
   height="1633"
   id="rect151"
   style="fill:none;stroke:none" />
         <path
   d="M 86,2278 1700,700"
   id="path153"
   inkscape:connector-curvature="0"
   style="fill:none;stroke:#000000;stroke-width:53;stroke-linecap:round;stroke-linejoin:miter" />
        </g>
       </g>
       <g
   class="com.sun.star.drawing.LineShape"
   id="g163">
        <g
   id="id18">
         <rect
   class="BoundingBox"
   x="1259"
   y="673"
   width="1669"
   height="1633"
   id="rect158"
   style="fill:none;stroke:none" />
         <path
   d="M 1286,2278 2900,700"
   id="path160"
   inkscape:connector-curvature="0"
   style="fill:none;stroke:#000000;stroke-width:53;stroke-linecap:round;stroke-linejoin:miter" />
        </g>
       </g>
       <g
   class="com.sun.star.drawing.LineShape"
   id="g170">
        <g
   id="id19">
         <rect
   class="BoundingBox"
   x="2459"
   y="673"
   width="1669"
   height="1633"
   id="rect165"
   style="fill:none;stroke:none" />
         <path
   d="M 2486,2278 4100,700"
   id="path167"
   inkscape:connector-curvature="0"
   style="fill:none;stroke:#000000;stroke-width:53;stroke-linecap:round;stroke-linejoin:miter" />
        </g>
       </g>
       <g
   class="com.sun.star.drawing.LineShape"
   id="g177">
        <g
   id="id20">
         <rect
   class="BoundingBox"
   x="3659"
   y="673"
   width="1669"
   height="1664"
   id="rect172"
   style="fill:none;stroke:none" />
         <path
   d="M 3686,2309 5300,700"
   id="path174"
   inkscape:connector-curvature="0"
   style="fill:none;stroke:#000000;stroke-width:53;stroke-linecap:round;stroke-linejoin:miter" />
        </g>
       </g>
       <g
   class="com.sun.star.drawing.LineShape"
   id="g184">
        <g
   id="id21">
         <rect
   class="BoundingBox"
   x="3659"
   y="1874"
   width="1669"
   height="1664"
   id="rect179"
   style="fill:none;stroke:none" />
         <path
   d="M 3686,3510 5300,1901"
   id="path181"
   inkscape:connector-curvature="0"
   style="fill:none;stroke:#000000;stroke-width:53;stroke-linecap:round;stroke-linejoin:miter" />
        </g>
       </g>
       <g
   class="com.sun.star.drawing.LineShape"
   id="g191">
        <g
   id="id22">
         <rect
   class="BoundingBox"
   x="3659"
   y="3075"
   width="1669"
   height="1664"
   id="rect186"
   style="fill:none;stroke:none" />
         <path
   d="M 3686,4711 5300,3102"
   id="path188"
   inkscape:connector-curvature="0"
   style="fill:none;stroke:#000000;stroke-width:53;stroke-linecap:round;stroke-linejoin:miter" />
        </g>
       </g>
       <g
   class="com.sun.star.drawing.LineShape"
   id="g198">
        <g
   id="id23">
         <rect
   class="BoundingBox"
   x="3694"
   y="4276"
   width="1634"
   height="1670"
   id="rect193"
   style="fill:none;stroke:none" />
         <path
   d="M 3721,5918 5300,4303"
   id="path195"
   inkscape:connector-curvature="0"
   style="fill:none;stroke:#000000;stroke-width:53;stroke-linecap:round;stroke-linejoin:miter" />
        </g>
       </g>
      </g>
     </g>
    </g>
   </g>
  </g>
 </g>
</svg>